<svg width="74" height="99" viewBox="0 0 74 99" fill="none" xmlns="http://www.w3.org/2000/svg">
<path d="M38.801 30.332L40.951 32.341C41.317 32.683 40.803 33.249 40.429 32.9L38.28 30.891C37.909 30.545 38.432 29.986 38.801 30.332Z" fill="#F9B078"/>
<path d="M37.518 31.73L39.831 33.55C40.226 33.861 39.76 34.467 39.357 34.151L37.045 32.331C36.647 32.019 37.12 31.418 37.518 31.73Z" fill="#F9B078"/>
<path d="M37.525 32.835L39.456 34.33C39.785 34.585 39.402 35.092 39.067 34.831L37.136 33.336C36.805 33.079 37.193 32.577 37.525 32.835Z" fill="#F9B078"/>
<path d="M41.693 32.691C41.481 32.708 40.638 32.046 40.638 32.046C40.035 32.742 39.169 33.825 38.962 34.727C38.962 34.727 41.02 36.77 41.555 36.324C41.902 36.595 42.695 37.223 42.929 37.408L44.37 35.286C43.924 34.863 43.516 34.493 43.18 34.149C43.554 32.975 42.391 31.924 41.979 31.029C41.776 30.589 41.632 30.238 41.632 30.238C41.632 30.238 41.041 30.242 41.168 30.899C41.295 31.555 42.109 32.661 41.693 32.691Z" fill="#F9B078"/>
<path d="M37.981 30.877L40.209 32.8C40.588 33.128 40.096 33.713 39.709 33.379L37.482 31.455C37.1 31.125 37.6 30.546 37.981 30.877Z" fill="#F9B078"/>
<path d="M56.875 58.969L52.054 77.015C52.054 77.015 53.069 95.028 53.078 95.911H58.774L59.024 77.015L64.906 58.969H56.875Z" fill="#1B66B3"/>
<path d="M69.98 62.465L68.158 95.911H61.95L61.338 75.126L60.439 58.119L69.98 62.465Z" fill="#3C3C99"/>
<path d="M48.004 14.807H26.03V28.275H48.004V14.807Z" fill="#B1ECFA"/>
<path d="M34.017 17.276H28.646V18.495H34.017V17.276Z" fill="#1B66B3"/>
<path d="M38.586 17.276H35.901V18.495H38.586V17.276Z" fill="#1B66B3"/>
<path d="M45.171 17.276H40.633V18.495H45.171V17.276Z" fill="#1B66B3"/>
<path d="M34.017 19.465H28.646V20.684H34.017V19.465Z" fill="#1B66B3"/>
<path d="M38.586 19.465H35.901V20.684H38.586V19.465Z" fill="#1B66B3"/>
<path d="M45.171 19.465H40.633V20.684H45.171V19.465Z" fill="#1B66B3"/>
<path d="M34.017 21.655H28.646V22.874H34.017V21.655Z" fill="#1B66B3"/>
<path d="M41.59 21.655H36.079V22.874H41.59V21.655Z" fill="#1B66B3"/>
<path d="M45.171 21.655H42.902V22.874H45.171V21.655Z" fill="#1B66B3"/>
<path d="M31.923 23.845H28.646V25.064H31.923V23.845Z" fill="#1B66B3"/>
<path d="M38.404 23.845H32.822V25.064H38.404V23.845Z" fill="#1B66B3"/>
<path d="M42.903 23.845H40.633V25.064H42.903V23.845Z" fill="#1B66B3"/>
<path d="M30.477 34.319C30.477 34.319 30.329 32.774 31.557 31.687L32.738 29.893C32.738 29.893 33.4951 30.144 33.1161 30.774L32.508 31.876C32.508 31.876 32.844 32.779 32.508 33.816L30.477 34.319Z" fill="#F9B078"/>
<path d="M29.748 35.517C29.748 35.517 30.826 33.429 31.769 33.025C31.769 33.025 32.308 32.621 34.396 33.025L35.977 32.372V30.802C35.977 30.802 36.349 30.532 36.484 31.712V33.147L34.261 33.901L31.221 36.858L29.748 35.517Z" fill="#F9B078"/>
<path d="M33.222 32.861C33.222 32.861 34.316 32.336 35.147 32.106V30.554C35.147 30.554 35.572 30.599 35.667 31.143L35.978 32.371L34.601 33.294L33.222 32.861Z" fill="#F9B078"/>
<path d="M32.507 32.861C32.507 32.861 33.601 32.336 34.431 32.106V30.554C34.431 30.554 34.857 30.599 34.951 31.143L35.262 32.371L33.885 33.294L32.507 32.861Z" fill="#F9B078"/>
<path d="M15.314 32.653C15.314 32.653 21.806 39.892 22.984 40.985L29.968 34.649L32.262 36.611C32.262 36.611 24.451 46.554 22.879 47.093C21.307 47.632 16.152 42.131 16.152 42.131L15.314 32.653Z" fill="#1B66B3"/>
<path d="M18.662 65.648C18.662 65.648 17.585 43.75 17.583 43.718L17.558 43.736C16.892 36.591 16.08 33.447 13.654 29.473C14.239 38.685 13.882 31.146 15.315 66.621L18.662 65.648Z" fill="#201C6F"/>
<path d="M7.60498 32.609L8.94501 58.969H16.976C16.976 43.295 16.486 41.198 13.653 27.432L7.60498 32.609Z" fill="#7DDFEF"/>
<path d="M8.90198 58.119L12.021 95.911H16.773L17.241 75.126L16.988 58.119H8.90198Z" fill="#1B66B3"/>
<path d="M3.26199 62.465L5.08401 95.911H11.293L11.904 75.126L12.803 58.119L3.26199 62.465Z" fill="#3C3C99"/>
<path d="M43.771 91.169V98.086C43.771 98.534 43.409 98.895 42.962 98.895H26.886C26.441 98.895 26.077 98.534 26.077 98.086V91.169C26.077 91.617 26.44 91.978 26.886 91.978H42.962C43.409 91.978 43.771 91.617 43.771 91.169Z" fill="#282828"/>
<path d="M43.771 85.87V91.169C43.771 91.617 43.409 91.978 42.962 91.978H26.886C26.441 91.978 26.077 91.617 26.077 91.169V85.87C26.077 85.424 26.44 85.061 26.886 85.061H42.962C43.409 85.061 43.771 85.424 43.771 85.87Z" fill="#3A3A3A"/>
<path d="M36.777 93.13C36.777 93.256 36.675 93.359 36.548 93.359H33.301C33.175 93.359 33.072 93.257 33.072 93.13V90.826C33.072 90.7 33.175 90.597 33.301 90.597H36.548C36.675 90.597 36.777 90.7 36.777 90.826V93.13Z" fill="#FFBA31"/>
<path d="M36.525 82.68H33.326C32.67 82.68 32.136 83.214 32.136 83.869V86.252C32.136 86.907 32.669 87.441 33.326 87.441H36.525C37.18 87.441 37.713 86.907 37.713 86.252V83.869C37.714 83.213 37.181 82.68 36.525 82.68ZM36.8 86.253C36.8 86.404 36.677 86.527 36.526 86.527H33.327C33.176 86.527 33.053 86.403 33.053 86.253V83.87C33.053 83.719 33.176 83.595 33.327 83.595H36.526C36.677 83.595 36.8 83.718 36.8 83.87V86.253Z" fill="#3A3A3A"/>
<path d="M12.053 34.547L14.092 41.988L13.964 50.967L9.75201 36.435L12.053 34.547Z" fill="#201C6F"/>
<path d="M19.091 19.629C20.727 8.69102 4.13402 9.67402 6.18202 18.871C6.69002 21.148 7.89302 24.069 7.89302 24.069L7.62501 26.875C10.028 29.444 13.653 31.099 13.653 31.099L14.359 26.007C14.359 26.007 15.544 26.653 16.478 26.763C16.478 26.763 18.126 27.147 18.496 26.246C18.718 23.781 18.864 23.502 19.157 22.122C20.375 21.68 20.572 20.889 19.091 19.629Z" fill="#F9B078"/>
<path d="M7.46898 24.285C9.75198 24.285 10.022 22.302 10.448 21.399L11.196 19.938L11.634 22.281H12.676C12.676 22.281 12.291 19.407 12.888 18.115C12.888 18.115 10.685 15.859 12.676 15.338C15.859 15.248 18.183 16.203 19.197 17.783C19.726 13.561 16.27 11.349 12.764 11.314C3.00297 11.214 5.49798 21.982 7.46898 24.285Z" fill="#3A3A3A"/>
<path d="M20.079 13.655V18.263L26.636 13.655H20.079Z" fill="#1B66B3"/>
<path d="M42.053 0.187988H20.079V13.655H42.053V0.187988Z" fill="#B1ECFA"/>
<path d="M28.066 2.65601H22.694V3.87501H28.066V2.65601Z" fill="#1B66B3"/>
<path d="M32.635 2.65601H29.95V3.87501H32.635V2.65601Z" fill="#1B66B3"/>
<path d="M39.22 2.65601H34.682V3.87501H39.22V2.65601Z" fill="#1B66B3"/>
<path d="M28.066 4.84601H22.694V6.06501H28.066V4.84601Z" fill="#1B66B3"/>
<path d="M32.635 4.84601H29.95V6.06501H32.635V4.84601Z" fill="#1B66B3"/>
<path d="M39.22 4.84601H34.682V6.06501H39.22V4.84601Z" fill="#1B66B3"/>
<path d="M28.066 7.03497H22.694V8.25397H28.066V7.03497Z" fill="#1B66B3"/>
<path d="M35.639 7.03497H30.128V8.25397H35.639V7.03497Z" fill="#1B66B3"/>
<path d="M39.219 7.03497H36.951V8.25397H39.219V7.03497Z" fill="#1B66B3"/>
<path d="M25.972 9.22498H22.694V10.444H25.972V9.22498Z" fill="#1B66B3"/>
<path d="M32.453 9.22498H26.871V10.444H32.453V9.22498Z" fill="#1B66B3"/>
<path d="M36.952 9.22498H34.682V10.444H36.952V9.22498Z" fill="#1B66B3"/>
<path d="M48.004 23.836L53.042 25.915L48.004 28.275V23.836Z" fill="#1B66B3"/>
<path d="M11.922 22.281C11.922 22.281 11.561 18.393 9.41198 19.493C9.41198 19.493 8.50102 20.5 10.012 21.399C10.012 21.399 9.89601 22.979 10.903 22.901L11.922 22.281Z" fill="#F9B078"/>
<path d="M12.291 24.205C12.291 24.205 12.712 26.013 14.092 27.625L14.36 26.006C14.36 26.006 13.68 25.509 12.291 24.205Z" fill="#F49D56"/>
<path d="M7.625 26.875L6.10999 28.467L10.541 35.788L13.464 33.481C13.464 33.481 12.904 31.89 12.914 30.729L7.625 26.875Z" fill="#C0EBF2"/>
<path d="M6.10999 28.467C6.10999 28.467 1.48101 28.467 0.77301 35.608L2.27899 67.868C2.27899 67.868 8.94499 68.701 14.438 65.677L11.921 38.069L6.10999 28.467Z" fill="#201C6F"/>
<path d="M14.113 33.41L15.314 35.506L13.992 28.657L13.733 30.729L14.113 33.41Z" fill="#C0EBF2"/>
<path d="M12.945 30.761C12.562 32.141 13.231 33.466 13.996 34.535C14.29 32.648 14.325 31.632 13.764 30.761H12.945Z" fill="#D24324"/>
<path d="M13.495 33.666C14.523 40.25 14.801 42.113 14.854 44.935L15.785 45.657L16.215 44.93C15.66 39.113 15.315 37.499 14.106 33.665L13.495 33.666Z" fill="#D24324"/>
<path d="M29.875 46.94L26.934 46.935C26.432 46.935 26.42 47.699 26.932 47.7L29.874 47.705C30.381 47.705 30.381 46.941 29.875 46.94Z" fill="#F9B078"/>
<path d="M29.854 48.838L26.922 48.585C26.423 48.541 26.347 49.302 26.857 49.347L29.789 49.6C30.293 49.643 30.358 48.881 29.854 48.838Z" fill="#F9B078"/>
<path d="M29.095 49.638L26.664 49.409C26.249 49.37 26.181 50.001 26.604 50.04L29.035 50.269C29.453 50.309 29.512 49.677 29.095 49.638Z" fill="#F9B078"/>
<path d="M26.15 46.683C26.294 46.84 27.362 46.934 27.362 46.934C27.326 47.853 27.216 49.236 26.751 50.036C26.751 50.036 23.853 50.12 23.768 49.428C23.33 49.388 22.322 49.304 22.024 49.28L22.423 46.746C23.037 46.743 23.588 46.752 24.069 46.731C24.599 45.619 26.167 45.648 27.08 45.276C27.529 45.094 27.874 44.935 27.874 44.935C27.874 44.935 28.302 45.343 27.761 45.735C27.219 46.127 25.868 46.377 26.15 46.683Z" fill="#F9B078"/>
<path d="M30.101 47.898L27.161 47.778C26.66 47.758 26.619 48.522 27.13 48.542L30.07 48.662C30.574 48.683 30.605 47.919 30.101 47.898Z" fill="#F9B078"/>
<path d="M4.82998 29.686C4.47598 29.807 0.693997 30.159 3.057 37.248C8.032 53.52 4.57699 52.9 23.25 50.095L22.864 46.035L11.596 46.318C11.598 46.317 9.24398 28.177 4.82998 29.686Z" fill="#3C3C99"/>
<path d="M58.536 32.653C58.536 32.653 52.045 39.892 50.867 40.985L43.883 34.649L41.589 36.611C41.589 36.611 49.4 46.554 50.972 47.093C52.544 47.632 57.699 42.131 57.699 42.131L58.536 32.653Z" fill="#1B66B3"/>
<path d="M55.188 65.648C55.188 65.648 56.266 43.75 56.268 43.718L56.293 43.736C56.959 36.591 57.77 33.447 60.197 29.473C59.612 38.685 59.97 31.146 58.535 66.621L55.188 65.648Z" fill="#201C6F"/>
<path d="M66.245 32.609L64.906 58.969H56.875C56.875 43.295 57.365 41.198 60.198 27.432L66.245 32.609Z" fill="#7DDFEF"/>
<path d="M61.799 34.547L59.76 41.988L60.018 50.967L64.1 36.435L61.799 34.547Z" fill="#201C6F"/>
<path d="M54.76 19.629C53.125 8.69102 69.717 9.67402 67.67 18.871C67.162 21.148 65.959 24.069 65.959 24.069L66.226 26.875C63.824 29.444 60.199 31.099 60.199 31.099L59.493 26.007C59.493 26.007 58.307 26.653 57.374 26.763C57.374 26.763 55.726 27.147 55.356 26.246C55.134 23.781 54.988 23.502 54.695 22.122C53.477 21.68 53.279 20.889 54.76 19.629Z" fill="#F9B078"/>
<path d="M66.383 24.285C64.1 24.285 63.83 22.302 63.403 21.399L62.656 19.938L62.218 22.281H61.176C61.176 22.281 61.561 19.407 60.964 18.115C60.964 18.115 63.167 15.859 61.176 15.338C57.992 15.248 55.669 16.203 54.655 17.783C54.126 13.561 57.582 11.349 61.087 11.314C70.85 11.214 68.354 21.982 66.383 24.285Z" fill="#3A3A3A"/>
<path d="M61.93 22.281C61.93 22.281 62.291 18.393 64.44 19.493C64.44 19.493 65.351 20.5 63.84 21.399C63.84 21.399 63.956 22.979 62.949 22.901L61.93 22.281Z" fill="#F9B078"/>
<path d="M61.56 24.205C61.56 24.205 61.138 26.013 59.759 27.625L59.491 26.006C59.491 26.006 60.171 25.509 61.56 24.205Z" fill="#F49D56"/>
<path d="M66.226 26.875L67.741 28.467L63.311 35.788L60.388 33.481C60.388 33.481 60.947 31.89 60.938 30.729L66.226 26.875Z" fill="#C0EBF2"/>
<path d="M67.74 28.467C67.74 28.467 72.37 28.467 73.078 35.608L71.572 67.868C71.572 67.868 64.906 68.701 59.412 65.677L61.93 38.069L67.74 28.467Z" fill="#201C6F"/>
<path d="M59.738 33.41L58.537 35.506L59.859 28.657L60.118 30.729L59.738 33.41Z" fill="#C0EBF2"/>
<path d="M60.905 30.761C61.29 32.141 60.62 33.466 59.855 34.535C59.562 32.648 59.526 31.632 60.086 30.761H60.905Z" fill="#D24324"/>
<path d="M60.356 33.666C59.327 40.25 59.05 42.113 58.997 44.935L58.066 45.657L57.636 44.93C58.191 39.113 58.536 37.499 59.745 33.665L60.356 33.666Z" fill="#D24324"/>
<path d="M44.005 46.283L46.922 46.671C47.419 46.737 47.328 47.496 46.821 47.429L43.904 47.041C43.402 46.974 43.504 46.216 44.005 46.283Z" fill="#F9B078"/>
<path d="M43.772 48.167L46.711 48.307C47.212 48.33 47.186 49.095 46.674 49.071L43.734 48.931C43.23 48.906 43.268 48.143 43.772 48.167Z" fill="#F9B078"/>
<path d="M44.419 49.061L46.859 49.158C47.275 49.174 47.257 49.809 46.835 49.791L44.395 49.694C43.975 49.678 44 49.045 44.419 49.061Z" fill="#F9B078"/>
<path d="M47.73 46.525C47.566 46.661 46.497 46.612 46.497 46.612C46.41 47.527 46.334 48.912 46.687 49.767C46.687 49.767 49.55 50.237 49.726 49.563C50.165 49.581 51.176 49.633 51.474 49.649L51.416 47.084C50.808 46.998 50.261 46.934 49.787 46.849C49.41 45.676 47.853 45.496 46.997 45.006C46.577 44.765 46.257 44.562 46.257 44.562C46.257 44.562 45.777 44.909 46.262 45.37C46.746 45.832 48.052 46.259 47.73 46.525Z" fill="#F9B078"/>
<path d="M43.654 47.203L46.584 47.476C47.084 47.523 47.022 48.285 46.514 48.237L43.583 47.963C43.08 47.917 43.151 47.155 43.654 47.203Z" fill="#F9B078"/>
<path d="M69.021 29.996C69.375 30.117 73.157 30.469 70.793 37.557C65.818 53.829 69.274 53.21 50.599 50.404L50.986 46.344L62.254 46.627C62.254 46.627 64.607 28.487 69.021 29.996Z" fill="#3C3C99"/>
<path d="M21.131 97.751L21.116 97.444C21.116 96.676 19.69 96.758 18.833 96.737C17.869 96.713 16.856 96.554 16.326 95.911H12.021C11.509 96.786 11.956 97.735 11.956 97.735V98.34H15.028V98.102C17.496 98.581 19.82 98.225 21.131 97.751Z" fill="#282828"/>
<path d="M14.193 97.751L14.178 97.444C14.177 96.676 12.752 96.758 11.895 96.737C10.931 96.713 9.917 96.554 9.388 95.911H5.08301C4.57101 96.786 5.01901 97.735 5.01901 97.735V98.34H8.091V98.102C10.559 98.581 12.883 98.225 14.193 97.751Z" fill="#3A3A3A"/>
<path d="M55.227 98.103V98.341H58.298V97.736C58.298 97.736 58.745 96.787 58.235 95.912H53.929C53.4 96.555 52.386 96.714 51.422 96.738C50.565 96.759 49.14 96.677 49.139 97.445L49.124 97.752C50.435 98.225 52.76 98.581 55.227 98.103Z" fill="#282828"/>
<path d="M65.151 98.103V98.341H68.222V97.736C68.222 97.736 68.669 96.787 68.158 95.912H63.853C63.324 96.555 62.31 96.714 61.346 96.738C60.489 96.759 59.064 96.677 59.063 97.445L59.048 97.752C60.359 98.225 62.684 98.581 65.151 98.103Z" fill="#3A3A3A"/>
</svg>
