<svg width="110" height="110" viewBox="0 0 110 110" fill="none" xmlns="http://www.w3.org/2000/svg">
<path d="M55.319 50.785L53.071 50.974C52.688 51.006 52.73 51.591 53.12 51.558L55.369 51.37C55.755 51.336 55.706 50.752 55.319 50.785Z" fill="#F49D56"/>
<path d="M55.428 52.235L53.172 52.233C52.787 52.233 52.779 52.819 53.172 52.82L55.428 52.822C55.814 52.822 55.814 52.236 55.428 52.235Z" fill="#F49D56"/>
<path d="M54.899 52.897L53.028 52.88C52.709 52.877 52.699 53.364 53.023 53.366L54.895 53.382C55.217 53.385 55.222 52.899 54.899 52.897Z" fill="#F49D56"/>
<path d="M52.458 50.832C52.578 50.942 53.399 50.944 53.399 50.944C53.431 51.649 53.438 52.712 53.135 53.353C53.135 53.353 50.926 53.607 50.816 53.084C50.478 53.082 49.704 53.084 49.475 53.085L49.614 51.124C50.084 51.081 50.504 51.052 50.87 51.005C51.202 50.121 52.401 50.04 53.074 49.697C53.405 49.527 53.658 49.384 53.658 49.384C53.658 49.384 54.012 49.667 53.625 50.002C53.237 50.337 52.222 50.616 52.458 50.832Z" fill="#F49D56"/>
<path d="M55.554 51.5021L53.3 51.6031C52.916 51.6201 52.935 52.2061 53.326 52.1891L55.58 52.0871C55.967 52.0701 55.94 51.4841 55.554 51.5021Z" fill="#F49D56"/>
<path d="M38.925 44.145L42.544 51.781L50.453 50.35L51.047 53.839L40.295 56.507L36.746 49.944L38.925 44.145Z" fill="#B1ECFA"/>
<path d="M13.728 61.544L9.30802 64.922C9.02202 65.141 8.614 65.085 8.396 64.8L0.547001 54.528C0.329001 54.243 0.38301 53.835 0.66901 53.616L5.08802 50.239C4.80202 50.458 4.74901 50.866 4.96701 51.151L12.816 61.423C13.034 61.707 13.442 61.763 13.728 61.544Z" fill="#282828"/>
<path d="M17.115 58.957L13.729 61.544C13.442 61.763 13.035 61.707 12.817 61.422L4.96797 51.15C4.75097 50.865 4.80398 50.457 5.08898 50.238L8.47499 47.651C8.75999 47.433 9.16898 47.488 9.38698 47.773L17.236 58.045C17.455 58.33 17.399 58.739 17.115 58.957Z" fill="#3A3A3A"/>
<path d="M9.06101 58.032C8.97901 58.094 8.86402 58.078 8.80302 57.998L7.218 55.923C7.156 55.842 7.17202 55.727 7.25202 55.665L8.72401 54.54C8.80501 54.478 8.919 54.494 8.982 54.575L10.567 56.649C10.629 56.73 10.613 56.845 10.532 56.907L9.06101 58.032Z" fill="#FFBA31"/>
<path d="M15.615 52.769L14.053 50.725C13.732 50.306 13.131 50.225 12.712 50.546L11.19 51.709C10.771 52.029 10.69 52.631 11.011 53.049L12.573 55.094C12.893 55.513 13.495 55.593 13.913 55.273L15.436 54.11C15.854 53.789 15.935 53.188 15.615 52.769ZM13.466 54.689C13.369 54.763 13.231 54.744 13.157 54.647L11.595 52.603C11.521 52.506 11.539 52.368 11.636 52.293L13.158 51.13C13.255 51.056 13.394 51.074 13.468 51.171L15.03 53.215C15.104 53.313 15.086 53.451 14.989 53.525L13.466 54.689Z" fill="#3A3A3A"/>
<path d="M21.664 45.629L15.773 49.181L16.568 51.174L24.321 47.051L21.664 45.629Z" fill="#F49D56"/>
<path d="M23.488 60.2661C23.488 60.2661 29.481 45.3251 31.483 43.3251L36.486 40.9241L39.95 43.981C39.95 43.981 38.979 49.1271 38.245 50.6291L32.59 62.3541L23.488 60.2661Z" fill="#201C6F"/>
<path d="M18.434 50.1341L16.557 51.1691C17.866 52.5491 16.21 53.2611 15.922 53.4201C15.922 53.4201 14.971 53.0101 15.453 52.7441L14.822 52.1881L13.883 50.2241L17.409 48.2771L18.434 50.1341Z" fill="#F49D56"/>
<path d="M14.053 52.6129L14.822 52.1879C15.471 51.8299 15.932 52.7929 15.338 53.1219L14.569 53.5469C13.972 53.8749 13.402 52.9729 14.053 52.6129Z" fill="#F49D56"/>
<path d="M13.704 51.979L14.472 51.554C15.121 51.196 15.582 52.159 14.987 52.488L14.219 52.913C13.622 53.242 13.052 52.339 13.704 51.979Z" fill="#F49D56"/>
<path d="M13.352 51.345L14.122 50.92C14.771 50.562 15.232 51.527 14.637 51.855L13.868 52.28C13.272 52.608 12.702 51.704 13.352 51.345Z" fill="#F49D56"/>
<path d="M13.002 50.711L13.772 50.286C14.421 49.928 14.882 50.892 14.287 51.221L13.519 51.645C12.922 51.974 12.352 51.07 13.002 50.711Z" fill="#F49D56"/>
<path d="M36.046 35.729C36.059 37.423 37.059 38.774 37.048 39.267C37.041 39.567 36.485 40.923 36.485 40.923L39.689 45.154L40.763 42.044C40.763 42.044 41.506 42.683 42.152 42.904C42.152 42.904 43.263 43.428 43.663 42.845C44.196 41.129 44.343 40.954 44.762 40.018C45.694 39.891 45.955 39.3601 45.095 38.2391C47.926 30.7211 35.996 28.888 36.046 35.729Z" fill="#F49D56"/>
<path d="M23.195 64.5131C23.367 64.9021 21.237 74.9071 21.237 74.9071L5.75201 83.2451L6.871 86.8621C6.871 86.8621 26.934 79.0091 28.342 77.4621L30.653 66.5571L23.195 64.5131Z" fill="#1B66B3"/>
<path d="M19.452 46.5221L24.169 43.1501C24.169 43.1501 27.508 42.6801 30.708 42.4501C39.233 41.8371 37.628 47.1411 36.175 47.1521L25.219 47.291L21.077 49.4191L19.452 46.5221Z" fill="#B1ECFA"/>
<path d="M46.046 36.1861L41.741 35.2791C41.741 35.2791 40.158 37.7601 37.048 39.2671C37.048 39.2671 34.926 36.4421 36.751 33.2151C36.751 33.2151 38.272 30.2811 42.168 31.0681L41.715 31.5981C41.715 31.5981 41.607 30.7741 43.992 31.9021C43.992 31.9021 46.508 33.2561 46.046 36.1861Z" fill="#3A3A3A"/>
<path d="M40.225 37.118C40.225 37.118 39.96 36.088 39.159 36.069C38.112 36.045 38.923 38.617 39.472 38.648L40.225 37.118Z" fill="#F49D56"/>
<path d="M38.161 43.136L38.964 48.427L39.689 45.154L38.161 43.136Z" fill="#B1ECFA"/>
<path d="M80.029 54.3971V65.5161H64.823V76.6341H49.618V87.7531H34.413V98.8721H19.208V109.991H46.577V98.8721H61.782V87.7531H76.987V76.6341H92.192V65.5161H107.398V54.3971H80.029Z" fill="#9B9EAD"/>
<path d="M43.188 84.3451C43.188 84.3451 43.154 85.9431 44.308 87.1081L51.995 84.8651C51.995 84.8651 52.133 83.0971 50.189 83.5161L46.692 83.8231L45.74 83.4181L43.188 84.3451Z" fill="#3F3F3F"/>
<path d="M5.92499 83.8051C5.92499 83.8051 4.12099 83.9431 2.99899 85.1381L5.51801 92.7381C5.51801 92.7381 7.28999 92.8111 6.80099 90.8841L6.36801 87.4021L6.73801 86.4361L5.92499 83.8051Z" fill="#3F3F3F"/>
<path d="M38.925 44.145L39.86 44.66L39.587 45.918L38.925 44.145Z" fill="#E2340C"/>
<path d="M39.295 45.135L36.934 52.339L37.573 54.291L38.586 53.426L39.587 45.918L39.295 45.135Z" fill="#E2340C"/>
<path d="M23.488 60.266C22.577 62.104 22.679 64.532 24.184 66.017C26.387 68.19 40.607 66.834 40.607 66.834C40.608 66.838 41.494 80.398 42.638 84.819L46.911 83.417C46.911 83.417 46.215 62.064 44.616 61.05L23.488 60.266Z" fill="#3C3C99"/>
<path d="M108.711 19.8831L106.464 20.0721C106.081 20.1041 106.122 20.6891 106.513 20.6561L108.761 20.4671C109.147 20.4341 109.098 19.8501 108.711 19.8831Z" fill="#F49D56"/>
<path d="M108.819 21.333L106.563 21.332C106.179 21.331 106.171 21.918 106.563 21.918L108.819 21.92C109.207 21.92 109.207 21.334 108.819 21.333Z" fill="#F49D56"/>
<path d="M108.292 21.994L106.42 21.978C106.101 21.975 106.091 22.462 106.415 22.464L108.287 22.4801C108.609 22.4821 108.613 21.997 108.292 21.994Z" fill="#F49D56"/>
<path d="M105.851 19.9311C105.971 20.0401 106.791 20.0421 106.791 20.0421C106.823 20.7471 106.831 21.81 106.528 22.451C106.528 22.451 104.319 22.7051 104.209 22.1821C103.871 22.1811 103.097 22.1821 102.868 22.1831L103.007 20.222C103.477 20.179 103.897 20.1501 104.263 20.1031C104.595 19.2191 105.794 19.1381 106.467 18.7951C106.798 18.6261 107.051 18.4821 107.051 18.4821C107.051 18.4821 107.405 18.7651 107.017 19.1001C106.629 19.4351 105.614 19.7141 105.851 19.9311Z" fill="#F49D56"/>
<path d="M108.945 20.6L106.692 20.701C106.307 20.719 106.327 21.304 106.718 21.287L108.972 21.186C109.359 21.168 109.333 20.582 108.945 20.6Z" fill="#F49D56"/>
<path d="M92.317 13.243L95.936 20.879L103.846 19.447L104.438 22.9361L93.688 25.604L90.139 19.042L92.317 13.243Z" fill="#B1ECFA"/>
<path d="M67.121 30.642L62.7 34.02C62.414 34.239 62.007 34.183 61.789 33.898L53.94 23.626C53.722 23.341 53.776 22.934 54.062 22.715L58.481 19.337C58.195 19.556 58.142 19.964 58.36 20.249L66.209 30.521C66.427 30.805 66.834 30.861 67.121 30.642Z" fill="#282828"/>
<path d="M70.507 28.055L67.121 30.642C66.834 30.861 66.427 30.805 66.209 30.52L58.36 20.248C58.142 19.963 58.195 19.555 58.481 19.336L61.868 16.749C62.153 16.531 62.562 16.586 62.78 16.871L70.629 27.143C70.847 27.428 70.791 27.837 70.507 28.055Z" fill="#3A3A3A"/>
<path d="M62.453 27.1301C62.372 27.1911 62.257 27.1761 62.195 27.0951L60.61 25.0201C60.547 24.9391 60.563 24.8241 60.644 24.7621L62.116 23.6371C62.197 23.5751 62.311 23.5911 62.374 23.6721L63.959 25.7471C64.022 25.8281 64.006 25.9431 63.925 26.0051L62.453 27.1301Z" fill="#FFBA31"/>
<path d="M69.007 21.866L67.445 19.822C67.124 19.403 66.522 19.323 66.104 19.643L64.581 20.806C64.162 21.126 64.082 21.728 64.402 22.147L65.964 24.191C66.284 24.61 66.887 24.69 67.305 24.37L68.827 23.206C69.246 22.887 69.327 22.286 69.007 21.866ZM66.858 23.786C66.76 23.86 66.623 23.841 66.548 23.744L64.987 21.7C64.913 21.603 64.931 21.465 65.028 21.39L66.55 20.226C66.647 20.152 66.785 20.17 66.86 20.268L68.422 22.312C68.496 22.409 68.478 22.547 68.381 22.622L66.858 23.786Z" fill="#3A3A3A"/>
<path d="M75.057 14.7271L69.128 18.2991L69.96 20.272L77.713 16.1481L75.057 14.7271Z" fill="#F49D56"/>
<path d="M76.88 29.363C76.88 29.363 82.874 14.423 84.875 12.422L89.878 10.021L93.342 13.077C93.342 13.077 92.371 18.223 91.637 19.726L85.982 31.451L76.88 29.363Z" fill="#201C6F"/>
<path d="M71.826 19.2321L69.95 20.2671C71.258 21.6461 69.602 22.3581 69.314 22.5181C69.314 22.5181 68.363 22.1081 68.845 21.8421L68.213 21.287L67.274 19.3231L70.799 17.3771L71.826 19.2321Z" fill="#F49D56"/>
<path d="M67.444 21.7111L68.214 21.2871C68.863 20.9291 69.324 21.8921 68.73 22.2201L67.961 22.6441C67.364 22.9731 66.794 22.0701 67.444 21.7111Z" fill="#F49D56"/>
<path d="M67.096 21.077L67.864 20.652C68.514 20.294 68.973 21.257 68.379 21.586L67.61 22.011C67.014 22.34 66.444 21.436 67.096 21.077Z" fill="#F49D56"/>
<path d="M66.744 20.442L67.514 20.018C68.163 19.659 68.624 20.624 68.03 20.952L67.261 21.377C66.664 21.706 66.095 20.802 66.744 20.442Z" fill="#F49D56"/>
<path d="M66.395 19.8091L67.164 19.3841C67.813 19.0261 68.274 19.9911 67.68 20.3191L66.911 20.7441C66.314 21.0721 65.744 20.1681 66.395 19.8091Z" fill="#F49D56"/>
<path d="M89.438 4.82703C89.451 6.52103 90.451 7.87204 90.44 8.36504C90.433 8.66504 89.877 10.021 89.877 10.021L93.081 14.252L94.154 11.141C94.154 11.141 94.897 11.78 95.543 12.001C95.543 12.001 96.655 12.525 97.055 11.942C97.588 10.226 97.735 10.05 98.154 9.11504C99.086 8.98704 99.347 8.45604 98.488 7.33504C101.318 -0.180956 89.388 -2.01497 89.438 4.82703Z" fill="#F49D56"/>
<path d="M76.587 33.61C76.759 34 74.629 44.003 74.629 44.003L59.144 52.341L60.263 55.958C60.263 55.958 80.327 48.104 81.733 46.558L84.044 35.653L76.587 33.61Z" fill="#1B66B3"/>
<path d="M72.844 15.6201L77.562 12.2481C77.562 12.2481 80.901 11.7781 84.1 11.5481C92.625 10.9351 91.02 16.2381 89.567 16.2501L78.611 16.3901L74.469 18.5171L72.844 15.6201Z" fill="#B1ECFA"/>
<path d="M99.438 5.28404L95.132 4.37605C95.132 4.37605 93.549 6.85705 90.44 8.36505C90.44 8.36505 88.318 5.53904 90.143 2.31304C90.143 2.31304 91.664 -0.620965 95.561 0.165035L95.107 0.695049C95.107 0.695049 95 -0.128966 97.384 0.999034C97.384 0.999034 99.9 2.35504 99.438 5.28404Z" fill="#3A3A3A"/>
<path d="M93.616 6.21603C93.616 6.21603 93.351 5.18604 92.55 5.16704C91.503 5.14304 92.315 7.71503 92.863 7.74603L93.616 6.21603Z" fill="#F49D56"/>
<path d="M91.553 12.234L92.355 17.525L93.082 14.252L91.553 12.234Z" fill="#B1ECFA"/>
<path d="M96.58 53.442C96.58 53.442 96.546 55.04 97.699 56.205L105.385 53.963C105.385 53.963 105.523 52.195 103.58 52.613L100.083 52.92L99.132 52.516L96.58 53.442Z" fill="#3F3F3F"/>
<path d="M59.317 52.9021C59.317 52.9021 57.513 53.0401 56.391 54.2351L58.911 61.8351C58.911 61.8351 60.682 61.9081 60.193 59.9821L59.76 56.4991L60.13 55.5331L59.317 52.9021Z" fill="#3F3F3F"/>
<path d="M92.317 13.243L93.252 13.758L92.979 15.016L92.317 13.243Z" fill="#E2340C"/>
<path d="M92.688 14.2321L90.326 21.4361L90.965 23.3891L91.978 22.5231L92.979 15.0161L92.688 14.2321Z" fill="#E2340C"/>
<path d="M76.88 29.363C75.97 31.201 76.071 33.629 77.577 35.114C79.78 37.287 94 35.931 94 35.931C94.001 35.935 94.887 49.496 96.031 53.916L100.304 52.515C100.304 52.515 99.608 31.161 98.009 30.147L76.88 29.363Z" fill="#3C3C99"/>
</svg>
