<svg width="107" height="84" viewBox="0 0 107 84" fill="none" xmlns="http://www.w3.org/2000/svg">
<path d="M79.6099 4.00208H22.0239C21.3189 4.00208 20.7469 4.57308 20.7469 5.27808V77.6151C20.7469 78.3211 21.3189 78.8921 22.0239 78.8921H80.8869V5.27808C80.8869 4.57308 80.3149 4.00208 79.6099 4.00208Z" fill="#43B7FF"/>
<path d="M74.932 0.778076H17.345C16.64 0.778076 16.069 1.34905 16.069 2.05505V74.3931C16.069 75.0971 16.641 75.6691 17.345 75.6691H76.209V2.05505C76.208 1.34905 75.636 0.778076 74.932 0.778076Z" fill="#9EE4EF"/>
<path d="M70.571 62.441C70.571 66.166 67.5519 69.185 63.827 69.185C60.102 69.185 57.0829 66.165 57.0829 62.441C57.0829 58.715 60.103 55.696 63.827 55.696C67.553 55.696 70.571 58.716 70.571 62.441Z" fill="#9ECC2E"/>
<path d="M63.827 73.2561C57.864 73.2561 53.012 68.404 53.012 62.442C53.012 56.478 57.864 51.6271 63.827 51.6271C69.791 51.6271 74.642 56.479 74.642 62.442C74.642 68.404 69.791 73.2561 63.827 73.2561ZM63.827 53.5981C58.951 53.5981 54.984 57.565 54.984 62.442C54.984 67.318 58.951 71.2851 63.827 71.2851C68.703 71.2851 72.67 67.318 72.67 62.442C72.67 57.565 68.703 53.5981 63.827 53.5981Z" fill="#9ECC2E"/>
<path d="M63.813 66.7691L58.524 61.0181L60.416 59.2761L63.649 62.7901L68.508 56.5391L70.537 58.1171L63.813 66.7691Z" fill="#E2340C"/>
<path d="M72.575 10.1691H41.592V12.5431H72.575V10.1691Z" fill="#474646"/>
<path d="M54.988 16.4701H41.592V18.8451H54.988V16.4701Z" fill="#474646"/>
<path d="M72.575 29.66H41.592V32.035H72.575V29.66Z" fill="#474646"/>
<path d="M54.988 35.962H41.592V38.337H54.988V35.962Z" fill="#474646"/>
<path d="M30.939 15.157V18.123L27.572 13.081L28.941 12.166L30.939 15.157Z" fill="#EE4643"/>
<path d="M36.037 7.49304H26.704C25.41 7.49304 24.357 8.54603 24.357 9.84003V19.173C24.357 20.467 25.41 21.52 26.704 21.52H36.037C37.331 21.52 38.384 20.467 38.384 19.173V9.84003C38.383 8.54603 37.331 7.49304 36.037 7.49304ZM35.832 20.159H26.908C26.25 20.159 25.717 19.626 25.717 18.968V10.044C25.717 9.38704 26.25 8.85303 26.908 8.85303H35.832C36.489 8.85303 37.022 9.38604 37.022 10.044V18.968C37.023 19.626 36.49 20.159 35.832 20.159Z" fill="#7B7B7B"/>
<path d="M35.169 11.804L30.938 18.123V15.157L30.941 15.16L33.8 10.89L35.169 11.804Z" fill="#DE1F26"/>
<path d="M30.939 34.6501V37.6151L27.572 32.5731L28.941 31.6581L30.939 34.6501Z" fill="#EE4643"/>
<path d="M36.037 26.9861H26.704C25.41 26.9861 24.357 28.0381 24.357 29.3321V38.6651C24.357 39.9591 25.41 41.0121 26.704 41.0121H36.037C37.331 41.0121 38.384 39.9591 38.384 38.6651V29.3321C38.383 28.0381 37.331 26.9861 36.037 26.9861ZM35.832 39.6511H26.908C26.25 39.6511 25.717 39.1181 25.717 38.4601V29.5361C25.717 28.8791 26.25 28.3461 26.908 28.3461H35.832C36.489 28.3461 37.022 28.8791 37.022 29.5361V38.4601C37.023 39.1181 36.49 39.6511 35.832 39.6511Z" fill="#7B7B7B"/>
<path d="M35.169 31.2971L30.938 37.6151V34.6501L30.941 34.6521L33.8 30.3831L35.169 31.2971Z" fill="#DE1F26"/>
<path d="M36.037 46.478H26.704C25.41 46.478 24.357 47.53 24.357 48.824V58.157C24.357 59.451 25.41 60.504 26.704 60.504H36.037C37.331 60.504 38.384 59.451 38.384 58.157V48.824C38.383 47.53 37.331 46.478 36.037 46.478ZM35.832 59.144H26.908C26.25 59.144 25.717 58.612 25.717 57.954V49.029C25.717 48.372 26.25 47.839 26.908 47.839H35.832C36.489 47.839 37.022 48.372 37.022 49.029V57.954C37.023 58.611 36.49 59.144 35.832 59.144Z" fill="#7B7B7B"/>
<path d="M5.07497 18.778V80.7099H0.745972V17.4299L2.03797 18.778L3.63197 17.4299L5.07497 18.778Z" fill="#A304A8"/>
<path d="M5.07497 11.663V18.778L3.63197 17.43L2.04197 18.778L0.745972 17.43L3.65197 11.663H5.07497Z" fill="#FFCB57"/>
<path d="M5.07399 8.84399L3.65399 11.663H6.49599L5.07399 8.84399Z" fill="#67006D"/>
<path d="M9.40295 17.4299V80.7099H5.07495V18.778L6.51795 17.4299L7.96095 18.778L9.40295 17.4299Z" fill="#67006D"/>
<path d="M9.40295 17.43L7.96095 18.778L6.51795 17.43L5.07495 18.778V11.663H6.49696L9.40295 17.43Z" fill="#F2B946"/>
<path d="M103.047 9.68486L101.353 16.3121L104.246 17.0515L105.94 10.4242L103.047 9.68486Z" fill="#DE1F26"/>
<path d="M100.15 8.94529L98.4593 15.5732L101.353 16.3114L103.044 9.68342L100.15 8.94529Z" fill="#EE4643"/>
<path d="M105.879 19.5652L93.3319 68.7082L83.2579 66.1361L95.8049 16.9932C96.0809 15.9102 97.1839 15.2562 98.2659 15.5322L104.418 17.1032C105.501 17.3782 106.155 18.4812 105.879 19.5652Z" fill="#67006D"/>
<path d="M94.4236 19.0495L92.6552 25.9752L104.336 28.9579L106.105 22.0322L94.4236 19.0495Z" fill="#C4C3C3"/>
<path d="M93.4494 26.1767L92.9271 28.223L103.001 30.7942L103.523 28.7479L93.4494 26.1767Z" fill="#7B7B7B"/>
<path d="M96.3669 19.5338L94.5992 26.4595L97.036 27.0814L98.8036 20.1557L96.3669 19.5338Z" fill="#E7E9E3"/>
<path d="M88.293 67.4211L86.706 73.6401L83.617 72.8521C82.801 71.1071 82.612 68.6631 83.258 66.1351L88.293 67.4211Z" fill="#C4C3C3"/>
<path d="M93.3319 68.7072C92.6859 71.2352 91.3499 73.2891 89.7969 74.4291L86.7059 73.6402L88.2929 67.4211L93.3319 68.7072Z" fill="#A3A4A4"/>
<path d="M83.6179 72.8521L83.4459 80.843L84.7799 81.1841L86.7059 73.6401L83.6179 72.8521Z" fill="#A3A4A4"/>
<path d="M89.796 74.4291L86.115 81.5241L84.78 81.1841L86.706 73.6401L89.796 74.4291Z" fill="#7B7B7B"/>
<path d="M83.7277 64.2843L83.2544 66.1378L93.3281 68.71L93.8013 66.8565L83.7277 64.2843Z" fill="#DE1F26"/>
<path d="M94.0993 28.5295L84.8762 64.5883L87.3127 65.2115L96.5358 29.1527L94.0993 28.5295Z" fill="#67006D"/>
<path d="M84.336 80.8041L83.685 83.3511C83.613 83.6321 83.783 83.9181 84.065 83.9901C84.346 84.0621 84.633 83.8921 84.705 83.6111L85.355 81.0641L84.336 80.8041Z" fill="#565557"/>
</svg>
