<svg width="109" height="89" viewBox="0 0 109 89" fill="none" xmlns="http://www.w3.org/2000/svg">
<path d="M54.785 0.255981L59.419 23.031L72.916 4.10995L67.886 26.801L87.912 15.006L74.087 33.689L97.18 31.058L76.951 42.503L99.117 49.491L75.982 51.72L93.39 67.121L71.348 59.746L80.986 80.895L63.851 65.193L64.054 88.435L54.785 67.121L45.518 88.435L45.72 65.193L28.584 80.895L38.222 59.746L16.182 67.121L33.588 51.72L10.453 49.491L32.619 42.503L12.391 31.058L35.483 33.689L21.659 15.006L41.685 26.801L36.654 4.10995L50.151 23.031L54.785 0.255981Z" fill="#FF7900"/>
<path d="M14.728 38.915C14.728 38.915 14.514 47.453 27.322 51.509L35.22 60.475C35.22 60.475 41.197 61.755 43.972 58.553C46.747 55.352 43.972 57.486 43.972 57.486C43.972 57.486 41.837 54.498 38.635 53.43C38.635 53.43 35.86 46.494 36.927 42.597L14.728 38.915Z" fill="#F49D56"/>
<path d="M54.306 55.998L50.42 57.449L40.928 55.998L39.567 53.407L38.796 51.94C37.765 49.974 36.358 48.515 38.935 47.858C39.056 47.829 39.187 47.798 39.326 47.771C41.228 47.397 42.722 49.451 44.06 51.408L45.934 50.002L43.063 44.472L34.242 44.685L16.148 39.151L0.854004 40.822V24.193L25.615 25.467L52.298 34.008L53.152 38.915L54.306 55.998Z" fill="#FFC494"/>
<path d="M45.935 50.003C45.935 50.003 47.902 49.808 49.61 51.408C49.61 51.408 46.343 51.129 44.873 50.799L45.935 50.003Z" fill="#ED8C45"/>
<path d="M43.063 44.472C43.063 44.472 42.508 40.19 45.205 38.915L44.11 46.489L43.063 44.472Z" fill="#ED8C45"/>
<path d="M44.06 51.408C44.06 51.408 44.289 52.357 44.111 53.757L43.017 49.821L44.06 51.408Z" fill="#ED8C45"/>
<path d="M39.566 53.407L38.795 51.94C37.764 49.974 36.357 48.515 38.934 47.858C39.67 48.298 40.266 49.141 40.484 50.189C40.758 51.5 40.362 52.753 39.566 53.407Z" fill="#F9A262"/>
<path d="M50.414 63.2601C50.414 63.2601 50.356 63.6161 50.063 63.9461C49.539 64.5391 48.26 65.0491 45.206 63.2601C45.206 63.2601 44.826 63.1851 44.2 63.0491C41.517 62.4611 34.308 60.7391 33.271 58.9801C24.137 49.0251 13.864 55.7451 10.76 36.6441C10.76 36.6441 36.658 35.506 43.062 44.472C43.062 44.472 42.448 44.535 41.666 44.828C40.197 45.381 38.133 46.738 38.432 49.996L40.927 55.998C40.927 55.998 43.038 56.066 45.28 56.909C46.144 57.234 47.029 57.674 47.818 58.266C47.82 58.269 47.822 58.271 47.822 58.271C47.946 58.363 48.068 58.459 48.185 58.559C48.185 58.559 51.076 60.8461 50.414 63.2601Z" fill="#FFC494"/>
<path d="M50.288 62.8801C50.288 63.2581 50.209 63.6161 50.063 63.9451C49.539 64.5381 48.26 65.0481 45.206 63.2591C45.206 63.2591 44.826 63.1841 44.2 63.0481C44.196 62.9921 44.194 62.9371 44.194 62.8791C44.194 61.3161 45.557 60.0491 47.24 60.0491C48.924 60.0501 50.288 61.3171 50.288 62.8801Z" fill="#F9A262"/>
<path d="M45.28 56.909C43.989 56.587 42.198 56.557 39.896 57.449C39.896 57.449 37.335 49.645 35.521 47.858C35.521 47.858 38.212 45.188 41.667 44.828C40.198 45.381 38.134 46.738 38.433 49.996L40.928 55.998C40.928 55.998 43.039 56.066 45.28 56.909Z" fill="#FFE5D4"/>
<path d="M94.842 38.915C94.842 38.915 95.055 47.453 82.248 51.509L74.35 60.475C74.35 60.475 68.373 61.755 65.598 58.553C62.824 55.352 65.598 57.486 65.598 57.486C65.598 57.486 67.733 54.498 70.935 53.43C70.935 53.43 73.709 46.494 72.642 42.597L94.842 38.915Z" fill="#F49D56"/>
<path d="M55.265 55.998L59.15 57.449L68.642 55.998L70.004 53.407L70.775 51.94C71.806 49.974 73.213 48.515 70.636 47.858C70.514 47.829 70.384 47.798 70.245 47.771C68.343 47.397 66.848 49.451 65.51 51.408L63.636 50.002L66.508 44.472L75.329 44.685L93.422 39.151L108.717 40.822V24.193L83.955 25.467L57.273 34.008L56.419 38.915L55.265 55.998Z" fill="#FFC494"/>
<path d="M63.636 50.003C63.636 50.003 61.668 49.808 59.96 51.408C59.96 51.408 63.228 51.129 64.698 50.799L63.636 50.003Z" fill="#ED8C45"/>
<path d="M66.507 44.472C66.507 44.472 67.062 40.19 64.365 38.915L65.459 46.489L66.507 44.472Z" fill="#ED8C45"/>
<path d="M65.51 51.408C65.51 51.408 65.282 52.357 65.459 53.757L66.554 49.821L65.51 51.408Z" fill="#ED8C45"/>
<path d="M70.004 53.407L70.775 51.94C71.806 49.974 73.213 48.515 70.636 47.858C69.9 48.298 69.304 49.141 69.086 50.189C68.813 51.5 69.208 52.753 70.004 53.407Z" fill="#F9A262"/>
<path d="M59.155 63.2601C59.155 63.2601 59.214 63.6161 59.506 63.9461C60.031 64.5391 61.31 65.0491 64.364 63.2601C64.364 63.2601 64.744 63.1851 65.369 63.0491C68.053 62.4611 75.262 60.7391 76.299 58.9801C85.433 49.0251 95.706 55.7451 98.81 36.6441C98.81 36.6441 72.912 35.506 66.508 44.472C66.508 44.472 67.122 44.535 67.903 44.828C69.372 45.381 71.436 46.738 71.137 49.996L68.641 55.998C68.641 55.998 66.531 56.066 64.289 56.909C63.425 57.234 62.541 57.674 61.752 58.266C61.749 58.269 61.747 58.271 61.747 58.271C61.623 58.363 61.502 58.459 61.385 58.559C61.385 58.559 58.494 60.8461 59.155 63.2601Z" fill="#FFC494"/>
<path d="M59.282 62.8801C59.282 63.2581 59.36 63.6161 59.506 63.9451C60.031 64.5381 61.31 65.0481 64.364 63.2591C64.364 63.2591 64.744 63.1841 65.369 63.0481C65.374 62.9921 65.376 62.9371 65.376 62.8791C65.376 61.3161 64.012 60.0491 62.33 60.0491C60.646 60.0501 59.282 61.3171 59.282 62.8801Z" fill="#F9A262"/>
<path d="M64.289 56.909C65.581 56.587 67.372 56.557 69.673 57.449C69.673 57.449 72.235 49.645 74.049 47.858C74.049 47.858 71.358 45.188 67.903 44.828C69.372 45.381 71.436 46.738 71.137 49.996L68.641 55.998C68.641 55.998 66.531 56.066 64.289 56.909Z" fill="#FFE5D4"/>
</svg>
