<svg width="112" height="106" viewBox="0 0 112 106" fill="none" xmlns="http://www.w3.org/2000/svg">
<path d="M54.6391 75.832C54.9371 77.552 55.5541 79.456 57.5641 79.59C59.9931 79.749 61.5601 78.156 61.0971 75.641C60.8921 74.527 60.0071 73.717 59.5151 72.74C58.8761 71.47 57.1701 69.714 55.5841 69.92C52.9631 70.261 54.3731 74.296 54.6391 75.832Z" fill="#543309"/>
<path d="M68.8401 77.161L59.8901 67.642C59.8901 67.642 55.0741 67.87 54.8081 71.92C54.5421 75.969 61.8491 78.985 61.8491 78.985L68.8401 77.161Z" fill="#033D91"/>
<path d="M58.019 23.3831H50.018V27.0281H58.019V23.3831Z" fill="#0258A0"/>
<path d="M56.626 25.0121L56.634 19.7891H51.403L51.387 25.0141C50.978 25.0361 50.563 25.0561 50.165 25.0891C50.491 26.9161 52.088 28.3061 54.008 28.3061C55.931 28.3061 57.534 26.9161 57.859 25.0831C57.457 25.0531 57.04 25.0331 56.626 25.0121Z" fill="#F49D56"/>
<path d="M39.367 55.8021C35.02 54.8341 31.261 52.1061 26.883 49.3771C24.353 47.8011 19.41 44.321 14.273 42.52C6.78303 39.894 2.59703 42.265 0.405029 44.718C0.717029 48.081 0.717027 48.081 2.47903 51.569C12.22 37.816 27.279 56.837 38.48 61.365C38.805 59.512 39.117 57.6591 39.367 55.8021Z" fill="#FF5122"/>
<path d="M109.754 54.8231C104.183 57.0361 97.141 56.0341 90.433 52.0771C83.631 48.0601 78.579 43.9621 69.146 45.9201C69.161 46.0131 69.176 46.1071 69.184 46.2041C69.355 48.1821 69.4 50.1581 69.379 52.1351C76.945 50.1921 80.069 53.0611 87.326 57.3411C95.674 62.2671 104.671 63.4181 112.01 60.5041L109.754 54.8231Z" fill="#FF5122"/>
<path d="M43.721 101.697L42.926 99.2069L42.762 96.96H39.331L39.169 99.2069L38.372 101.697H43.721Z" fill="#543309"/>
<path d="M44.859 104.235H37.268V105.335H44.859V104.235Z" fill="#543309"/>
<path d="M37.268 104.235H44.859C44.859 99.606 37.268 99.588 37.268 104.235Z" fill="#313C3B"/>
<path d="M22.523 17.52L23.928 20.795C24.167 21.354 23.322 21.73 23.077 21.16L21.672 17.885C21.43 17.321 22.282 16.956 22.523 17.52Z" fill="#F9B078"/>
<path d="M20.418 18.445L22.095 21.59C22.382 22.125 21.57 22.572 21.278 22.026L19.601 18.88C19.313 18.341 20.13 17.906 20.418 18.445Z" fill="#F9B078"/>
<path d="M19.889 19.673L21.302 22.272C21.542 22.714 20.872 23.09 20.627 22.639L19.215 20.04C18.972 19.593 19.646 19.227 19.889 19.673Z" fill="#F9B078"/>
<path d="M24.581 21.5461C24.338 21.4591 23.725 20.3171 23.725 20.3171C22.718 20.7951 21.231 21.5751 20.561 22.4731C20.561 22.4731 21.847 25.7421 22.658 25.5071C22.911 25.9771 23.484 27.0591 23.653 27.3781L26.286 25.7281C25.997 25.0421 25.725 24.4331 25.52 23.8871C26.506 22.7681 25.729 21.0351 25.708 19.8421C25.698 19.2551 25.711 18.7951 25.711 18.7951C25.711 18.7951 25.053 18.5131 24.874 19.3021C24.692 20.0921 25.057 21.7151 24.581 21.5461Z" fill="#F9B078"/>
<path d="M21.3491 17.7251L22.8821 20.9431C23.1421 21.4921 22.3121 21.9011 22.0451 21.3421L20.5131 18.123C20.2491 17.57 21.0851 17.1731 21.3491 17.7251Z" fill="#F9B078"/>
<path d="M42.052 27.273C35.481 38.51 29.717 29.739 25.942 24.219L22.449 26.141C26.107 41.494 35.885 45.631 44.802 36.763L42.052 27.273Z" fill="#68DBE0"/>
<path d="M85.522 17.52L84.117 20.795C83.878 21.354 84.724 21.73 84.968 21.16L86.373 17.885C86.615 17.321 85.764 16.956 85.522 17.52Z" fill="#F9B078"/>
<path d="M87.626 18.445L85.949 21.59C85.663 22.125 86.475 22.572 86.766 22.026L88.444 18.88C88.732 18.341 87.915 17.906 87.626 18.445Z" fill="#F9B078"/>
<path d="M88.157 19.673L86.745 22.272C86.504 22.714 87.174 23.09 87.42 22.639L88.831 20.04C89.073 19.593 88.399 19.227 88.157 19.673Z" fill="#F9B078"/>
<path d="M83.465 21.5461C83.708 21.4591 84.32 20.3171 84.32 20.3171C85.327 20.7951 86.815 21.5751 87.485 22.4731C87.485 22.4731 86.198 25.7421 85.387 25.5071C85.134 25.9771 84.561 27.0591 84.392 27.3781L81.76 25.7281C82.049 25.0421 82.32 24.4331 82.526 23.8871C81.54 22.7681 82.317 21.0351 82.338 19.8421C82.348 19.2551 82.336 18.7951 82.336 18.7951C82.336 18.7951 82.994 18.5131 83.172 19.3021C83.354 20.0921 82.989 21.7151 83.465 21.5461Z" fill="#F9B078"/>
<path d="M86.697 17.7251L85.164 20.9431C84.903 21.4921 85.734 21.9011 86.001 21.3421L87.533 18.123C87.796 17.57 86.96 17.1731 86.697 17.7251Z" fill="#F9B078"/>
<path d="M65.993 27.273C72.563 38.51 78.328 29.739 82.103 24.219L85.597 26.141C81.94 41.494 72.161 45.631 63.243 36.763L65.993 27.273Z" fill="#68DBE0"/>
<path d="M62.152 26.131C60.845 25.99 59.679 25.497 59.177 25.181C59.177 28.051 48.868 28.051 48.868 25.181C48.366 25.497 47.2 25.991 45.893 26.131C36.868 25.681 44.161 36.784 44.161 36.784L44.007 42.282L44.65 58.904H63.396L64.039 42.282L63.885 36.784C63.885 36.784 71.177 25.681 62.152 26.131Z" fill="#68DBE0"/>
<path d="M69.249 75.692C67.767 70.662 63.969 63.9871 63.969 63.9871L63.395 58.9041H44.65C44.65 58.9041 36.956 89.3831 36.971 98.5601H44.802L54.023 65.1201C55.133 67.7831 60.459 77.5541 61.85 78.9831C65.532 82.7731 70.695 80.598 69.249 75.692Z" fill="#0258A0"/>
<path d="M55.085 29.9041H53.039L52.361 38.9411L54.063 40.4041L56.124 38.9411L55.085 29.9041Z" fill="#0258A0"/>
<path d="M55.408 27.0281H52.718L51.949 28.1071L53.039 29.9041H55.085L56.176 28.1071L55.408 27.0281Z" fill="#033D91"/>
<path d="M48.195 25.1971L50.018 23.3831L54.009 27.0281L51.094 30.1131L48.195 25.1971Z" fill="#D2F7FF"/>
<path d="M59.832 25.222L58.018 23.4L54.009 27.028L56.913 30.126L59.832 25.222Z" fill="#D2F7FF"/>
<path d="M63.222 11.1961C63.222 11.1961 62.675 15.8821 61.872 18.6411L60.082 19.8961H54.009V4.67505L61.201 7.29907L63.222 11.1961Z" fill="#313C3B"/>
<path d="M44.798 11.1961C44.798 11.1961 45.344 15.8821 46.146 18.6411L47.936 19.8961H54.008V4.67505L46.818 7.29907L44.798 11.1961Z" fill="#313C3B"/>
<path d="M54.009 5.42896L45.368 8.40997L47.203 20.111C47.203 20.111 50.033 24.065 54.009 24.065C57.985 24.065 60.816 20.111 60.816 20.111L62.65 8.40997L54.009 5.42896Z" fill="#FCB87A"/>
<path d="M46.5311 12.975C44.9761 11.643 43.8361 13.275 45.6541 16.071C45.6541 16.071 45.5161 16.991 46.8201 16.991L46.5311 12.975Z" fill="#FCB87A"/>
<path d="M61.566 13.223C63.122 11.891 64.261 13.522 62.444 16.319C62.444 16.319 62.5821 17.239 61.2791 17.239L61.566 13.223Z" fill="#FCB87A"/>
<path d="M45.368 11.277C45.368 11.277 58.871 11.253 61.716 7.74103L51.403 6.68103L45.368 8.40903C45.368 8.40903 45.107 10.337 45.368 11.277Z" fill="#313C3B"/>
<path d="M55.2241 16.99C54.6231 17.602 53.3951 17.602 52.7951 16.99H52.3521L52.923 17.515C53.23 18.376 54.7861 18.397 55.0971 17.515L55.6681 16.99H55.2241Z" fill="#F49D56"/>
<path d="M56.001 20.272C55.642 20.943 54.886 21.403 54.009 21.403C53.132 21.403 52.377 20.943 52.017 20.272H56.001Z" fill="#C41902"/>
<path d="M56.207 19.645C56.177 19.867 56.105 20.079 56.001 20.272H52.017C51.913 20.079 51.841 19.867 51.812 19.645H56.207Z" fill="white"/>
<path d="M57.303 7.80103C57.303 7.80103 59.184 10.646 62.446 11.649L62.651 7.80103H57.303Z" fill="#313C3B"/>
<path d="M50.869 14.995C50.869 15.538 50.429 15.978 49.884 15.978C49.341 15.978 48.902 15.538 48.902 14.995C48.902 14.449 49.341 14.01 49.884 14.01C50.428 14.01 50.869 14.449 50.869 14.995Z" fill="#313C3B"/>
<path d="M50.5811 14.89C50.5811 15.098 50.4131 15.266 50.2071 15.266C50.0001 15.266 49.8311 15.098 49.8311 14.89C49.8311 14.685 50.0001 14.517 50.2071 14.517C50.4141 14.517 50.5811 14.685 50.5811 14.89Z" fill="white"/>
<path d="M59.017 14.995C59.017 15.538 58.5751 15.978 58.0331 15.978C57.4911 15.978 57.05 15.538 57.05 14.995C57.05 14.449 57.4901 14.01 58.0331 14.01C58.5761 14.01 59.017 14.449 59.017 14.995Z" fill="#313C3B"/>
<path d="M58.73 14.89C58.73 15.098 58.563 15.266 58.355 15.266C58.148 15.266 57.981 15.098 57.981 14.89C57.981 14.685 58.148 14.517 58.355 14.517C58.563 14.517 58.73 14.685 58.73 14.89Z" fill="white"/>
<path d="M54.063 0.216003C54.049 0.216003 54.037 0.213989 54.023 0.213989C48.335 0.213989 42.807 3.58301 44.799 11.196L54.063 10.476V0.216003Z" fill="#313C3B"/>
<path d="M53.9821 0.216003C53.9951 0.216003 54.0091 0.213989 54.0221 0.213989C59.7111 0.213989 65.239 3.58301 63.247 11.196L53.9821 10.476V0.216003Z" fill="#313C3B"/>
<path d="M49.325 10.403L47.353 12.018C47.353 12.018 53.025 13.81 55.669 10.33L55.25 12.213C55.25 12.213 58.792 12.162 59.833 8.98001C59.833 8.98001 54.288 8.54902 49.325 10.403Z" fill="#313C3B"/>
</svg>
