<svg width="113" height="101" viewBox="0 0 113 101" fill="none" xmlns="http://www.w3.org/2000/svg">
<path d="M75.883 24.727L75.188 22.624C77.518 21.854 76.565 19.47 76.422 19.038C76.422 19.038 75.073 18.56 75.312 19.283L74.15 19.253L71.355 20.364L73.102 25.647L75.883 24.727Z" fill="#FCB87A"/>
<path d="M37.209 24.727L37.905 22.624C35.703 21.921 36.528 19.47 36.671 19.038C36.671 19.038 38.02 18.56 37.781 19.283L38.942 19.253L41.737 20.364L39.99 25.647L37.209 24.727Z" fill="#FCB87A"/>
<path d="M65.398 24.164V21.447C70.94 21.447 74.99 19.943 77.438 16.976C80.348 13.45 80.315 8.65605 80.126 6.52505H66.184V3.80804H82.437C83.47 9.05004 82.888 14.627 79.55 18.687C76.562 22.321 71.801 24.164 65.398 24.164Z" fill="#FF8B00"/>
<path d="M48.52 24.164C42.118 24.164 37.357 22.321 34.37 18.687C31.032 14.627 30.449 9.04504 31.483 3.80804H47.736V6.52505H33.793C33.605 8.65405 33.571 13.449 36.481 16.976C38.928 19.943 42.978 21.447 48.52 21.447V24.164Z" fill="#FF8B00"/>
<path d="M56.058 37.543L53.482 40.684C53.482 40.684 53.295 50.278 46.666 53.069C46.666 53.069 43.737 54.675 45.794 57.256H56.958V37.543H56.058Z" fill="#FFCE00"/>
<path d="M57.858 37.543L60.433 40.684C60.433 40.684 60.62 50.278 67.249 53.069C67.249 53.069 70.179 54.675 68.121 57.256H56.958V37.543H57.858Z" fill="#FFB600"/>
<path d="M58.615 24.827H55.302V34.177H58.615V24.827Z" fill="#FF8B00"/>
<path d="M44.037 3.17804V6.17804C39.643 9.10704 40.289 26.483 56.959 26.483V3.17804H44.037Z" fill="#FFCE00"/>
<path d="M69.88 3.17804V6.17804C74.277 9.11004 73.626 26.483 56.959 26.483V3.17804H69.88Z" fill="#FFB600"/>
<path d="M62.073 28.559C62.073 29.325 61.453 29.944 60.688 29.944H53.229C52.464 29.944 51.844 29.324 51.844 28.559V27.222C51.844 26.457 52.465 25.838 53.229 25.838H60.688C61.453 25.838 62.073 26.458 62.073 27.222V28.559Z" fill="#FFB600"/>
<path d="M60.433 36.672C60.433 38.591 58.878 40.148 56.958 40.148C55.038 40.148 53.482 38.592 53.482 36.672C53.482 34.753 55.038 33.196 56.958 33.196C58.878 33.196 60.433 34.753 60.433 36.672Z" fill="#FFF039"/>
<path d="M71.819 2.57403C71.819 3.33903 71.199 3.95803 70.434 3.95803H43.481C42.716 3.95803 42.096 3.33803 42.096 2.57403V2.11303C42.096 1.34803 42.717 0.728027 43.481 0.728027H70.434C71.199 0.728027 71.819 1.34903 71.819 2.11303V2.57403Z" fill="#FFF039"/>
<path d="M45.8167 8.50442L43.4865 10.834L45.8161 13.1642L48.1463 10.8346L45.8167 8.50442Z" fill="white"/>
<path d="M109.322 71.901C109.221 72.171 109.122 72.444 109.045 72.661C108.836 73.252 108.349 73.297 108.351 72.641L108.354 71.494C108.378 69.818 109.331 69.61 109.331 69.61L111.592 68.598L111.351 72.563C111.351 72.563 110.831 74.518 108.079 74.32C107.399 74.271 107.469 73.608 108.007 73.622C108.785 73.642 109.452 73.323 109.322 71.901Z" fill="#FCB87A"/>
<path d="M105.4 94.09H100.296V97.162H105.4V94.09Z" fill="#B6E9FF"/>
<path d="M112.504 99.968C112.643 100.003 112.555 99.981 112.504 99.968Z" fill="#686868"/>
<path d="M111.094 99.343L111.077 98.979C111.077 98.068 109.387 98.1651 108.37 98.1411C107.227 98.1121 106.026 97.924 105.399 97.162H100.295C99.69 98.199 100.219 99.3241 100.219 99.3241V100.041H103.86V99.759C106.786 100.327 109.541 99.904 111.094 99.343Z" fill="#2D2D2D"/>
<path d="M92.8931 94.09H87.7891V97.162H92.8931V94.09Z" fill="#B6E9FF"/>
<path d="M80.684 99.968C80.632 99.981 80.545 100.003 80.684 99.968Z" fill="#686868"/>
<path d="M89.327 99.759V100.041H92.967V99.3241C92.967 99.3241 93.497 98.199 92.892 97.162H87.788C87.16 97.924 85.959 98.1121 84.816 98.1411C83.799 98.1661 82.11 98.069 82.11 98.979L82.092 99.343C83.647 99.904 86.402 100.327 89.327 99.759Z" fill="#2D2D2D"/>
<path d="M92.456 40.086L96.587 57.794L100.72 40.086H92.456Z" fill="#B6E9FF"/>
<path d="M98.017 44.813H95.164L93.966 49.104L95.445 59.131L96.591 59.455L97.736 59.131L99.214 49.104L98.017 44.813Z" fill="#0258A0"/>
<path d="M100.73 40.085C112.929 41.928 112.086 42.994 112.086 69.61H108.272L106.738 51.169V67.585H96.593V57.793L100.73 40.085Z" fill="#2D2D2D"/>
<path d="M93.198 39.091C79.902 40.962 86.449 48.366 86.449 48.366V67.585H96.595V57.793L93.198 39.091Z" fill="#474646"/>
<path d="M98.895 39.023L98.903 34.419H94.291L94.278 39.025C93.916 39.045 93.551 39.062 93.199 39.091C93.487 40.701 94.896 41.928 96.588 41.928C98.283 41.928 99.696 40.701 99.983 39.087C99.626 39.059 99.26 39.042 98.895 39.023Z" fill="#F49D56"/>
<path d="M98.465 40.801H94.715L93.643 42.305L95.164 44.813H98.017L99.538 42.305L98.465 40.801Z" fill="#033D91"/>
<path d="M103.842 48.938H100.094V50.18H103.842V48.938Z" fill="white"/>
<path d="M103.842 50.1801H100.094V54.1861H103.842V50.1801Z" fill="#686868"/>
<path d="M92.457 40.085L88.247 44.257L96.59 57.792L92.457 40.085Z" fill="#2D2D2D"/>
<path d="M100.722 40.085L104.932 44.257L96.59 57.792L100.722 40.085Z" fill="#474646"/>
<path d="M91.46 39.188L93.067 37.587L96.587 40.801L94.016 43.521L91.46 39.188Z" fill="#D2F7FF"/>
<path d="M101.721 39.2071L100.122 37.6021L96.587 40.8011L99.147 43.5321L101.721 39.2071Z" fill="#D2F7FF"/>
<path d="M106.262 69.61V95.83H99.04L97.238 74.7661H95.94L94.138 95.83H86.914V69.61H106.262Z" fill="#686868"/>
<path d="M106.262 67.585H86.914V69.61H106.262V67.585Z" fill="#222324"/>
<path d="M98.682 67.585H94.496V69.61H98.682V67.585Z" fill="#FAB914"/>
<path d="M90.73 73.349H86.914V81.748H90.73V73.349Z" fill="#414344"/>
<path d="M106.262 73.349H102.445V81.748H106.262V73.349Z" fill="#414344"/>
<path d="M88.017 40.39L80.37 34.568L76.188 22.265L72.1021 23.732L75.8111 37.587L86.4491 48.366L88.017 40.39Z" fill="#474646"/>
<path d="M74.049 18.572L74.43 19.724C74.752 20.696 76.123 20.153 75.828 19.262L75.448 18.11C75.152 17.216 73.726 17.597 74.049 18.572Z" fill="#FCB87A"/>
<path d="M73.1 18.886L73.481 20.038C73.803 21.011 75.175 20.466 74.88 19.575L74.499 18.423C74.203 17.53 72.777 17.911 73.1 18.886Z" fill="#FCB87A"/>
<path d="M72.148 19.201L72.529 20.353C72.852 21.325 74.224 20.781 73.929 19.891L73.547 18.739C73.253 17.844 71.826 18.226 72.148 19.201Z" fill="#FCB87A"/>
<path d="M70.958 19.57L71.339 20.722C71.661 21.695 73.034 21.15 72.739 20.259L72.357 19.107C72.063 18.214 70.636 18.595 70.958 19.57Z" fill="#FCB87A"/>
<path d="M105.453 26.205C105.453 26.205 104.926 30.72 104.153 33.38L102.428 34.589H96.576V19.92L103.507 22.449L105.453 26.205Z" fill="#313C3B"/>
<path d="M87.698 26.205C87.698 26.205 88.224 30.72 88.997 33.38L90.723 34.589H96.576V19.92L89.646 22.449L87.698 26.205Z" fill="#313C3B"/>
<path d="M96.575 20.6461L88.247 23.5191L90.015 34.7971C90.015 34.7971 92.742 38.6081 96.575 38.6081C100.406 38.6081 103.135 34.7971 103.135 34.7971L104.903 23.5191L96.575 20.6461Z" fill="#FCB87A"/>
<path d="M89.3681 27.9191C87.8681 26.6351 86.7701 28.2081 88.5221 30.9031C88.5221 30.9031 88.3881 31.7891 89.6441 31.7891L89.3681 27.9191Z" fill="#FCB87A"/>
<path d="M103.858 28.157C105.357 26.873 106.456 28.446 104.703 31.141C104.703 31.141 104.837 32.027 103.581 32.027L103.858 28.157Z" fill="#FCB87A"/>
<path d="M88.247 26.282C88.247 26.282 101.26 26.259 104.003 22.874L94.063 21.853L88.248 23.518C88.248 23.518 87.996 25.376 88.247 26.282Z" fill="#313C3B"/>
<path d="M97.745 31.7891C97.166 32.3801 95.9821 32.3801 95.4041 31.7891H94.9771L95.528 32.2951C95.823 33.1251 97.323 33.1451 97.624 32.2951L98.174 31.7891H97.745Z" fill="#F49D56"/>
<path d="M98.495 34.952C98.149 35.598 97.42 36.041 96.576 36.041C95.73 36.041 95.003 35.598 94.655 34.952H98.495Z" fill="#C41902"/>
<path d="M98.6931 34.346C98.6631 34.56 98.5951 34.765 98.4941 34.951H94.6531C94.5541 34.764 94.4841 34.56 94.4561 34.346H98.6931Z" fill="white"/>
<path d="M99.748 22.932C99.748 22.932 101.562 25.674 104.706 26.64L104.903 22.932H99.748Z" fill="#313C3B"/>
<path d="M93.548 29.8661C93.548 30.3891 93.123 30.8141 92.598 30.8141C92.075 30.8141 91.651 30.3891 91.651 29.8661C91.651 29.3401 92.075 28.9171 92.598 28.9171C93.123 28.9171 93.548 29.3401 93.548 29.8661Z" fill="#313C3B"/>
<path d="M93.271 29.764C93.271 29.965 93.109 30.127 92.91 30.127C92.71 30.127 92.548 29.965 92.548 29.764C92.548 29.567 92.71 29.405 92.91 29.405C93.109 29.405 93.271 29.566 93.271 29.764Z" fill="white"/>
<path d="M101.4 29.8661C101.4 30.3891 100.974 30.8141 100.451 30.8141C99.928 30.8141 99.504 30.3891 99.504 29.8661C99.504 29.3401 99.928 28.9171 100.451 28.9171C100.974 28.9171 101.4 29.3401 101.4 29.8661Z" fill="#313C3B"/>
<path d="M101.124 29.764C101.124 29.965 100.963 30.127 100.763 30.127C100.563 30.127 100.402 29.965 100.402 29.764C100.402 29.567 100.563 29.405 100.763 29.405C100.963 29.405 101.124 29.566 101.124 29.764Z" fill="white"/>
<path d="M96.626 15.622C96.613 15.622 96.6 15.621 96.586 15.621C91.104 15.621 85.776 18.868 87.697 26.206L96.626 25.511V15.622Z" fill="#313C3B"/>
<path d="M96.548 15.622C96.561 15.622 96.575 15.621 96.587 15.621C102.07 15.621 107.398 18.868 105.478 26.206L96.549 25.511L96.548 15.622Z" fill="#313C3B"/>
<path d="M92.0601 25.4401L90.1591 26.9971C90.1591 26.9971 95.6261 28.7241 98.1741 25.3701L97.7701 27.1841C97.7701 27.1841 101.184 27.1351 102.187 24.0671C102.187 24.0671 96.8431 23.6531 92.0601 25.4401Z" fill="#313C3B"/>
<path d="M76.621 21.32L76.5291 17.912C76.5291 17.912 75.448 18.109 75.649 19.551L75.321 22.264L75.971 22L76.621 21.32Z" fill="#FCB87A"/>
<path d="M3.771 71.901C3.873 72.171 3.971 72.444 4.048 72.661C4.258 73.252 4.744 73.297 4.742 72.641L4.738 71.494C4.715 69.818 3.762 69.61 3.762 69.61L1.5 68.598L1.741 72.563C1.741 72.563 2.262 74.518 5.013 74.32C5.692 74.271 5.622 73.608 5.086 73.622C4.309 73.642 3.642 73.323 3.771 71.901Z" fill="#FCB87A"/>
<path d="M12.797 94.09H7.69403V97.162H12.797V94.09Z" fill="#B6E9FF"/>
<path d="M0.589014 99.968C0.538014 99.981 0.451014 100.003 0.589014 99.968Z" fill="#686868"/>
<path d="M9.23302 99.759V100.041H12.873V99.3241C12.873 99.3241 13.403 98.199 12.797 97.162H7.69402C7.06702 97.924 5.86602 98.1121 4.72302 98.1411C3.70602 98.1661 2.01702 98.069 2.01702 98.979L1.99902 99.343C3.55302 99.904 6.30802 100.327 9.23302 99.759Z" fill="#2D2D2D"/>
<path d="M25.305 94.09H20.202V97.162H25.305V94.09Z" fill="#B6E9FF"/>
<path d="M32.41 99.968C32.548 100.003 32.461 99.981 32.41 99.968Z" fill="#686868"/>
<path d="M31 99.343L30.983 98.979C30.982 98.068 29.293 98.1651 28.277 98.1411C27.134 98.1121 25.933 97.924 25.306 97.162H20.202C19.597 98.199 20.126 99.3241 20.126 99.3241V100.041H23.767V99.759C26.692 100.327 29.446 99.904 31 99.343Z" fill="#2D2D2D"/>
<path d="M20.637 40.086L16.506 57.794L12.374 40.086H20.637Z" fill="#B6E9FF"/>
<path d="M15.078 44.813H17.93L19.127 49.104L17.648 59.131L16.502 59.455L15.358 59.131L13.879 49.104L15.078 44.813Z" fill="#0258A0"/>
<path d="M12.363 40.085C0.163992 41.928 1.007 42.994 1.007 69.61H4.82099L6.355 51.169V67.585H16.5V57.793L12.363 40.085Z" fill="#2D2D2D"/>
<path d="M19.896 39.091C33.192 40.962 26.645 48.366 26.645 48.366V67.585H16.499V57.793L19.896 39.091Z" fill="#474646"/>
<path d="M14.199 39.023L14.192 34.419H18.804L18.818 39.025C19.179 39.045 19.545 39.062 19.896 39.091C19.609 40.701 18.199 41.928 16.507 41.928C14.812 41.928 13.399 40.701 13.112 39.087C13.467 39.059 13.834 39.042 14.199 39.023Z" fill="#F49D56"/>
<path d="M14.628 40.801H18.378L19.45 42.305L17.93 44.813H15.078L13.556 42.305L14.628 40.801Z" fill="#033D91"/>
<path d="M12.998 48.938H9.25104V50.18H12.998V48.938Z" fill="white"/>
<path d="M12.998 50.1801H9.25104V54.1861H12.998V50.1801Z" fill="#686868"/>
<path d="M20.636 40.085L24.846 44.257L16.504 57.792L20.636 40.085Z" fill="#2D2D2D"/>
<path d="M12.372 40.085L8.16199 44.257L16.504 57.792L12.372 40.085Z" fill="#474646"/>
<path d="M21.633 39.188L20.026 37.587L16.506 40.801L19.077 43.521L21.633 39.188Z" fill="#D2F7FF"/>
<path d="M11.372 39.2071L12.973 37.6021L16.506 40.8011L13.945 43.5321L11.372 39.2071Z" fill="#D2F7FF"/>
<path d="M6.83099 69.61V95.83H14.053L15.855 74.7661H17.153L18.956 95.83H26.179V69.61H6.83099Z" fill="#686868"/>
<path d="M26.179 67.585H6.83203V69.61H26.179V67.585Z" fill="#222324"/>
<path d="M18.599 67.585H14.413V69.61H18.599V67.585Z" fill="#FAB914"/>
<path d="M26.179 73.349H22.363V81.748H26.179V73.349Z" fill="#414344"/>
<path d="M10.648 73.349H6.83203V81.748H10.648V73.349Z" fill="#414344"/>
<path d="M25.077 40.39L32.724 34.568L36.905 22.265L40.992 23.732L37.283 37.587L26.645 48.366L25.077 40.39Z" fill="#474646"/>
<path d="M39.044 18.572L38.663 19.724C38.342 20.696 36.971 20.153 37.266 19.262L37.647 18.11C37.941 17.216 39.367 17.597 39.044 18.572Z" fill="#FCB87A"/>
<path d="M39.994 18.886L39.614 20.038C39.292 21.011 37.921 20.466 38.215 19.575L38.596 18.423C38.891 17.53 40.316 17.911 39.994 18.886Z" fill="#FCB87A"/>
<path d="M40.945 19.201L40.564 20.353C40.242 21.325 38.87 20.781 39.165 19.891L39.546 18.739C39.841 17.844 41.267 18.226 40.945 19.201Z" fill="#FCB87A"/>
<path d="M42.137 19.566L41.756 20.718C41.433 21.691 40.061 21.146 40.356 20.256L40.737 19.104C41.032 18.21 42.458 18.591 42.137 19.566Z" fill="#FCB87A"/>
<path d="M7.64001 26.205C7.64001 26.205 8.16702 30.72 8.94102 33.38L10.665 34.589H16.519V19.92L9.58701 22.449L7.64001 26.205Z" fill="#313C3B"/>
<path d="M25.396 26.205C25.396 26.205 24.87 30.72 24.096 33.38L22.371 34.589H16.518V19.92L23.448 22.449L25.396 26.205Z" fill="#313C3B"/>
<path d="M16.519 20.6461L24.847 23.5191L23.079 34.7971C23.079 34.7971 20.351 38.6081 16.519 38.6081C12.687 38.6081 9.958 34.7971 9.958 34.7971L8.19 23.5191L16.519 20.6461Z" fill="#FCB87A"/>
<path d="M23.726 27.9191C25.225 26.6351 26.324 28.2081 24.572 30.9031C24.572 30.9031 24.705 31.7891 23.449 31.7891L23.726 27.9191Z" fill="#FCB87A"/>
<path d="M9.23599 28.157C7.73699 26.873 6.63699 28.446 8.38999 31.141C8.38999 31.141 8.25699 32.027 9.51299 32.027L9.23599 28.157Z" fill="#FCB87A"/>
<path d="M24.847 26.282C24.847 26.282 11.834 26.259 9.091 22.874L19.031 21.853L24.847 23.518C24.847 23.518 25.099 25.376 24.847 26.282Z" fill="#313C3B"/>
<path d="M15.349 31.7891C15.928 32.3801 17.112 32.3801 17.691 31.7891H18.117L17.567 32.2951C17.271 33.1251 15.772 33.1451 15.471 32.2951L14.92 31.7891H15.349Z" fill="#F49D56"/>
<path d="M14.599 34.952C14.945 35.598 15.674 36.041 16.519 36.041C17.365 36.041 18.092 35.598 18.439 34.952H14.599Z" fill="#C41902"/>
<path d="M14.401 34.346C14.43 34.56 14.498 34.765 14.599 34.951H18.439C18.539 34.764 18.609 34.56 18.636 34.346H14.401Z" fill="white"/>
<path d="M13.345 22.932C13.345 22.932 11.531 25.674 8.38798 26.64L8.19098 22.932H13.345Z" fill="#313C3B"/>
<path d="M19.546 29.8661C19.546 30.3891 19.971 30.8141 20.495 30.8141C21.018 30.8141 21.442 30.3891 21.442 29.8661C21.442 29.3401 21.018 28.9171 20.495 28.9171C19.971 28.9171 19.546 29.3401 19.546 29.8661Z" fill="#313C3B"/>
<path d="M19.823 29.764C19.823 29.965 19.985 30.127 20.184 30.127C20.383 30.127 20.545 29.965 20.545 29.764C20.545 29.567 20.383 29.405 20.184 29.405C19.985 29.405 19.823 29.566 19.823 29.764Z" fill="white"/>
<path d="M11.693 29.8661C11.693 30.3891 12.119 30.8141 12.642 30.8141C13.165 30.8141 13.589 30.3891 13.589 29.8661C13.589 29.3401 13.165 28.9171 12.642 28.9171C12.12 28.9171 11.693 29.3401 11.693 29.8661Z" fill="#313C3B"/>
<path d="M11.969 29.764C11.969 29.965 12.13 30.127 12.331 30.127C12.53 30.127 12.692 29.965 12.692 29.764C12.692 29.567 12.53 29.405 12.331 29.405C12.13 29.405 11.969 29.566 11.969 29.764Z" fill="white"/>
<path d="M16.467 15.622C16.48 15.622 16.492 15.621 16.506 15.621C21.989 15.621 27.316 18.868 25.396 26.206L16.467 25.511V15.622Z" fill="#313C3B"/>
<path d="M16.544 15.622C16.532 15.622 16.519 15.621 16.506 15.621C11.023 15.621 5.69599 18.868 7.61499 26.206L16.544 25.511V15.622Z" fill="#313C3B"/>
<path d="M21.034 25.4401L22.934 26.9971C22.934 26.9971 17.468 28.7241 14.92 25.3701L15.325 27.1841C15.325 27.1841 11.91 27.1351 10.907 24.0671C10.907 24.0671 16.25 23.6531 21.034 25.4401Z" fill="#313C3B"/>
<path d="M36.406 20.678L36.564 17.912C36.564 17.912 37.646 18.109 37.444 19.551L37.78 21.921L36.406 20.678Z" fill="#FCB87A"/>
</svg>
