<svg width="118" height="88" viewBox="0 0 118 88" fill="none" xmlns="http://www.w3.org/2000/svg">
<path d="M38.713 13.8C35.099 13.8 32.159 16.723 32.159 20.319V77.559C32.159 81.151 35.098 84.075 38.713 84.075H63.045V13.8H38.713Z" fill="#424242"/>
<path d="M93.93 20.319V77.559C93.93 81.151 90.991 84.075 87.376 84.075H63.045V13.8H87.376C90.99 13.8 93.93 16.724 93.93 20.319Z" fill="#2D2D2D"/>
<path d="M1.521 74.082L14.278 82.648L17.094 78.115C25.419 79.744 34.638 62.345 34.638 62.345L9.75699 59.289L1.521 74.082Z" fill="#FFC278"/>
<path d="M10.592 53.345C11.089 59.389 16.389 63.886 22.433 63.389C28.478 62.892 32.974 57.591 32.477 51.547C31.981 45.503 26.68 41.006 20.635 41.503C14.591 42 10.096 47.302 10.592 53.345Z" fill="#DAEFEC"/>
<path d="M21.2793 41.765L20.1411 41.8582L20.3087 43.9054L21.4469 43.8123L21.2793 41.765Z" fill="#4D4F50"/>
<path d="M32.1661 51.0045L30.1189 51.1721L30.2121 52.3113L32.2593 52.1437L32.1661 51.0045Z" fill="#4D4F50"/>
<path d="M22.8387 60.9744L21.6996 61.0682L21.8683 63.1162L23.0074 63.0224L22.8387 60.9744Z" fill="#4D4F50"/>
<path d="M12.9472 52.5943L10.901 52.7616L10.9941 53.9008L13.0404 53.7335L12.9472 52.5943Z" fill="#4D4F50"/>
<path d="M87.139 17.624H38.95C38.36 17.624 37.882 18.103 37.882 18.692V79.225C37.882 79.815 38.36 80.293 38.95 80.293H88.207V18.692C88.207 18.102 87.728 17.624 87.139 17.624Z" fill="#DAEFEC"/>
<path d="M63.043 3.36899V0.859985H62.413C59.805 0.859985 57.69 2.97398 57.69 5.58398V8.84798C53.835 9.16098 50.109 12.176 50.109 17.624H63.043V6.85499C62.08 6.85499 61.302 6.07398 61.302 5.11098C61.302 4.14798 62.08 3.36899 63.043 3.36899Z" fill="#5947DD"/>
<path d="M75.978 17.623H63.043V6.85596C63.086 6.85596 63.128 6.85296 63.168 6.85096C64.072 6.78796 64.788 6.03296 64.788 5.11196C64.788 4.19196 64.072 3.43996 63.168 3.37596C63.128 3.37296 63.086 3.37096 63.043 3.37096V0.860962H63.672C66.284 0.860962 68.398 2.97496 68.398 5.58396V8.84896C70.104 8.98596 71.783 9.65396 73.123 10.828L73.129 10.83C74.823 12.311 75.978 14.593 75.978 17.623Z" fill="#1E14A5"/>
<path d="M90.326 40.197L76.986 45.648C76.485 45.457 75.548 44.861 76.101 43.278C76.627 41.771 82.551 38.34 82.551 38.34L90.326 40.197Z" fill="#FFAF57"/>
<path d="M86.743 50.279C86.743 50.279 89.597 48.537 90.786 48.749C91.974 48.963 94.313 51.491 94.313 51.491L95.419 50.368L92.888 46.258L88.123 44.593L83.403 46.439L86.743 50.279Z" fill="#FFAF57"/>
<path d="M50.672 40.649V63.992H74.015V40.649H50.672ZM70.425 60.403H54.262V44.24H70.425V60.403Z" fill="#17BEE5"/>
<path d="M65.973 60.072L57.434 50.788L60.488 47.977L65.707 53.65L73.552 43.559L76.828 46.105L65.973 60.072Z" fill="#FF6243"/>
<path d="M77.292 48.0069L113.627 30.1459L114.875 32.6859L77.749 50.9369L78.167 49.7899L76.917 49.2429L77.292 48.0069Z" fill="#FF3000"/>
<path d="M73.117 50.06L77.292 48.007L76.917 49.243L78.166 49.787L77.749 50.937L73.527 50.895L73.117 50.06Z" fill="#FFCB57"/>
<path d="M71.464 50.873L73.527 50.894L72.707 49.226L71.464 50.873Z" fill="#FF3000"/>
<path d="M75.252 45.857L112.379 27.606L113.627 30.146L77.292 48.007L76.085 47.55L76.459 46.314L75.252 45.857Z" fill="#DD2703"/>
<path d="M75.252 45.8569L76.459 46.3139L76.085 47.5499L77.292 48.0069L73.117 50.0599L72.706 49.2249L75.252 45.8569Z" fill="#F2B946"/>
<path d="M34.586 62.388C34.586 62.388 32.249 65.587 28.091 63.992L30.805 62.388H34.586Z" fill="#EA8B49"/>
<path d="M27.776 41.387L37.425 37.156C40.739 35.381 43.439 40.39 40.111 42.173L31.669 46.244L27.776 41.387Z" fill="#FFC278"/>
<path d="M8.9619 40.1925L7.38806 42.0492L11.9115 45.8835L13.4853 44.0269L8.9619 40.1925Z" fill="#4D4F50"/>
<path d="M9.0569 38.6408L5.86301 42.4065L7.71918 43.9808L10.9131 40.2151L9.0569 38.6408Z" fill="#2D2D2D"/>
<path d="M31.9323 38.3231L28.095 42.8441L29.9514 44.4198L33.7888 39.8988L31.9323 38.3231Z" fill="#4D4F50"/>
<path d="M31.5781 36.795L30.0022 38.6512L33.7656 41.8464L35.3416 39.9902L31.5781 36.795Z" fill="#2D2D2D"/>
<path d="M7.95999 53.562C8.57599 61.059 15.152 66.638 22.649 66.022C30.147 65.406 35.724 58.829 35.108 51.332C34.493 43.835 27.917 38.256 20.419 38.872C12.923 39.487 7.34399 46.064 7.95999 53.562ZM11.227 53.29C10.76 47.599 14.998 42.607 20.688 42.14C26.379 41.673 31.374 45.907 31.841 51.597C32.309 57.293 28.073 62.285 22.381 62.753C16.691 63.22 11.695 58.987 11.227 53.29Z" fill="#FF3000"/>
<path d="M21.045 52.141L22.058 52.721L25.112 47.374L25.102 46.215L24.097 46.795L21.045 52.141Z" fill="#2D2D2D"/>
<path d="M21.634 53.199L21.52 51.811L17.29 52.158L16.16 52.95L17.405 53.546L21.634 53.199Z" fill="#064EB7"/>
<path d="M20.401 52.483C20.422 53.13 20.964 53.636 21.611 53.614C22.26 53.592 22.765 53.051 22.743 52.402C22.721 51.756 22.178 51.249 21.532 51.27C20.887 51.294 20.379 51.835 20.401 52.483Z" fill="#302C2A"/>
<path d="M29.351 49.181C29.673 51.1 31.746 52.173 33.498 51.33L35.597 50.32C39.094 48.637 36.548 43.379 33.065 45.055L30.966 46.065C29.793 46.628 29.135 47.898 29.351 49.181Z" fill="#FFC278"/>
<path d="M28.824 49.666C29.063 51.088 30.599 51.883 31.898 51.258L33.454 50.51C36.046 49.262 34.158 45.366 31.577 46.608L30.021 47.356C29.153 47.773 28.665 48.715 28.824 49.666Z" fill="#FCD2AD"/>
<path d="M29.057 55.747C29.38 57.665 31.452 58.739 33.205 57.895L35.304 56.885C38.802 55.201 36.255 49.944 32.772 51.62L30.673 52.629C29.5 53.193 28.841 54.464 29.057 55.747Z" fill="#FFC278"/>
<path d="M30.085 61.152C30.349 62.722 32.044 63.601 33.479 62.911L34.4 62.468C37.262 61.09 35.177 56.787 32.328 58.159L31.408 58.601C30.447 59.063 29.909 60.103 30.085 61.152Z" fill="#FFC278"/>
<path d="M0.813002 52.504C0.498002 76.031 10.295 71.496 12.134 68.549C14.664 64.479 11.809 58.696 8.40202 54.741C8.40202 54.741 18.5 48.653 12.255 43.14L0.813002 52.504Z" fill="#FFC278"/>
<path d="M7.883 46.718C8.528 47.72 10.357 47.64 11.7 46.381C12.838 45.315 13.086 43.864 12.255 43.139L7.883 46.718Z" fill="#FCD2AD"/>
<path d="M28.824 56.192C29.063 57.614 30.599 58.409 31.898 57.784L33.454 57.036C36.046 55.789 34.158 51.892 31.577 53.134L30.021 53.882C29.153 54.3 28.665 55.242 28.824 56.192Z" fill="#FCD2AD"/>
<path d="M29.554 61.345C29.733 62.411 30.885 63.009 31.859 62.539L33.026 61.978C34.97 61.042 33.555 58.119 31.618 59.051L30.452 59.611C29.8 59.926 29.434 60.632 29.554 61.345Z" fill="#FCD2AD"/>
<path d="M104.606 63.389L103.682 53.567C103.5 51.632 102.807 49.782 101.671 48.205L98.303 43.525C97.577 42.517 96.734 42.169 95.606 42.158L88.986 45.412L92.889 46.259C97.104 53.104 91.539 55.597 89.213 52.767C87.03 50.111 83.863 45.778 82.436 45.246C81.375 44.851 79.668 45.508 79.538 47.526C79.422 49.33 82.972 54.281 85.957 60.299L94.174 69.113L95.935 74.082L106.828 67.131L104.606 63.389Z" fill="#FFC278"/>
<path d="M81.092 46.07C82.153 45.476 83.297 46.499 84.18 48.678L81.725 50.242C79.932 48.27 79.842 46.77 81.092 46.07Z" fill="#FFD19F"/>
<path d="M110.715 64.9032L92.3196 75.6064L99.057 87.1854L117.452 76.4822L110.715 64.9032Z" fill="#1E14A5"/>
</svg>
