<svg width="126" height="75" viewBox="0 0 126 75" fill="none" xmlns="http://www.w3.org/2000/svg">
<path d="M58.957 33.816C58.957 33.816 69.493 37.428 72.263 44.97L66.026 47.531C66.026 47.531 61.862 41.131 57.972 41.138C56.168 41.142 58.957 33.816 58.957 33.816Z" fill="#F49D56"/>
<path d="M35.714 36.8381C35.714 36.8381 34.942 51.1741 33.491 55.5251L27.278 74.4751H0.213013C9.41001 37.9741 11.318 35.8691 25.192 29.7861L35.714 36.8381Z" fill="#201C6F"/>
<path d="M22.116 15.828C22.765 20.428 25.971 23.737 26.121 25.08C26.212 25.898 25.192 29.785 25.192 29.785L35.433 40.123L37.225 31.279C37.225 31.279 39.476 32.747 41.311 33.113C41.311 33.113 44.523 34.135 45.397 32.405C46.225 27.548 46.561 27.017 47.358 24.322C49.845 23.638 50.362 22.1 47.621 19.365C52.589 -2.08899 19.499 -2.74998 22.116 15.828Z" fill="#F9B078"/>
<path d="M49.46 13.4451L37.43 12.5391C37.43 12.5391 34.026 19.855 26.12 25.08C26.12 25.08 19.327 18.1711 23.121 8.73806C23.121 8.73806 26.19 0.21304 37.066 0.93804L36.027 2.54204C36.027 2.54204 35.435 0.341044 42.323 2.54204C42.323 2.54204 49.652 5.31506 49.46 13.4451Z" fill="#3A3A3A"/>
<path d="M33.975 18.089C33.975 18.089 32.882 15.385 30.696 15.623C27.841 15.937 30.978 22.635 32.482 22.519L33.975 18.089Z" fill="#F9B078"/>
<path d="M30.548 35.192L34.646 49.283L35.433 40.123L30.548 35.192Z" fill="#B1ECFA"/>
<path d="M32.991 37.6581L35.717 38.7201L35.433 42.2371L32.991 37.6581Z" fill="#E2340C"/>
<path d="M34.353 40.2141L30.548 60.6491L32.991 65.7251L35.433 63.0061V42.2371L34.353 40.2141Z" fill="#E2340C"/>
<path d="M65.338 34.0531L59.426 37.4391C57.86 38.3351 56.611 35.9971 58.11 35.1391L64.022 31.7541C65.526 30.8921 66.895 33.1611 65.338 34.0531Z" fill="#F9B078"/>
<path d="M67.773 37.7461L61.861 41.1311C60.294 42.0281 59.046 39.6901 60.544 38.8321L66.457 35.4471C67.962 34.5851 69.33 36.8541 67.773 37.7461Z" fill="#F9B078"/>
<path d="M68.806 40.1091L62.894 43.4951C61.328 44.3921 60.08 42.0531 61.578 41.1951L67.49 37.8101C68.994 36.9481 70.362 39.2181 68.806 40.1091Z" fill="#F9B078"/>
<path d="M66.93 35.32L61.018 38.706C59.451 39.603 58.203 37.265 59.701 36.406L65.613 33.021C67.118 32.159 68.486 34.429 66.93 35.32Z" fill="#F9B078"/>
<path d="M53.825 44.7411C53.825 44.7411 58.255 32.675 60.014 32.675L64.796 40.7661C64.796 40.7661 59.21 46.5421 59.31 49.2841L53.825 44.7411Z" fill="#F9B078"/>
<path d="M59.91 33.6461L62.21 29.7861C62.21 29.7861 63.727 30.4461 63.217 32.2871C62.743 34.0001 62.743 34.0001 62.743 34.0001L59.91 33.6461Z" fill="#F9B078"/>
<path d="M62.55 37.082L57.371 32.654C55.998 31.481 57.78 29.518 59.093 30.64L64.271 35.068C65.591 36.195 63.913 38.248 62.55 37.082Z" fill="#F49D56"/>
<path d="M59.106 41.1091L53.927 36.6821C52.555 35.5091 54.336 33.5461 55.648 34.6671L60.828 39.0951C62.146 40.2231 60.471 42.2751 59.106 41.1091Z" fill="#F49D56"/>
<path d="M57.795 42.645L52.615 38.217C51.243 37.044 53.025 35.081 54.338 36.203L59.517 40.63C60.835 41.758 59.158 43.81 57.795 42.645Z" fill="#F49D56"/>
<path d="M60.06 38.44L54.881 34.013C53.509 32.84 55.29 30.877 56.603 31.999L61.783 36.426C63.102 37.553 61.425 39.605 60.06 38.44Z" fill="#F49D56"/>
<path d="M42.695 25.5021C42.695 25.5021 42.217 27.4891 44.683 28.7621C44.683 28.7621 45.557 27.697 46.114 27.132L42.695 25.5021Z" fill="white"/>
<path d="M42.059 18.7441C42.059 18.7441 42.562 18.2921 43.569 18.0541C44.031 17.9471 44.758 18.2541 45.485 18.1891L46.113 19.5391C46.113 19.5391 43.013 18.7441 42.059 18.7441Z" fill="white"/>
<path d="M40.23 15.0081L42.658 14.2131C42.658 14.2131 44.827 15.7631 46.114 17.3141L42.658 15.7091L41.184 16.1221L40.23 15.0081Z" fill="#77561D"/>
<path d="M42.059 18.744C43.736 17.786 45.835 18.441 46.114 19.539C46.55 19.065 44.841 16.319 42.059 18.744Z" fill="#77561D"/>
<path d="M45.346 18.821C45.346 19.113 45.064 19.35 44.716 19.35C44.368 19.35 44.086 19.113 44.086 18.821C44.086 18.529 44.368 18.292 44.716 18.292C45.064 18.292 45.346 18.529 45.346 18.821Z" fill="#3A3A3A"/>
<path d="M21.408 35.3061C23.233 33.6131 25.741 32.6211 28.655 35.3171L43.172 58.8921L54.621 41.2441L61.617 45.5371C61.617 45.5371 53.283 74.4751 42.059 73.2031C35.916 72.5061 13.148 42.9681 21.408 35.3061Z" fill="#3C3C99"/>
<path d="M90.066 36.8381C90.066 36.8381 90.839 51.1741 92.289 55.5251L98.504 74.4751H125.569C116.371 37.9741 114.464 35.8691 100.59 29.7861L90.066 36.8381Z" fill="#201C6F"/>
<path d="M103.666 15.828C103.017 20.428 99.811 23.737 99.66 25.08C99.57 25.898 100.59 29.785 100.59 29.785L90.349 40.123L88.558 31.279C88.558 31.279 86.306 32.747 84.471 33.113C84.471 33.113 81.259 34.135 80.386 32.405C79.558 27.548 79.221 27.017 78.423 24.322C75.937 23.638 75.419 22.1 78.161 19.365C73.192 -2.08899 106.283 -2.74998 103.666 15.828Z" fill="#F9B078"/>
<path d="M76.32 13.4451L88.351 12.5391C88.351 12.5391 91.755 19.855 99.66 25.08C99.66 25.08 106.454 18.1711 102.659 8.73806C102.659 8.73806 99.59 0.21304 88.714 0.93804L89.753 2.54204C89.753 2.54204 90.346 0.341044 83.457 2.54204C83.457 2.54204 76.129 5.31506 76.32 13.4451Z" fill="#3A3A3A"/>
<path d="M91.807 18.089C91.807 18.089 92.9 15.385 95.086 15.623C97.941 15.937 94.803 22.635 93.3 22.519L91.807 18.089Z" fill="#F9B078"/>
<path d="M95.233 35.192L91.135 49.283L90.349 40.123L95.233 35.192Z" fill="#B1ECFA"/>
<path d="M92.79 37.6581L90.065 38.7201L90.349 42.2371L92.79 37.6581Z" fill="#E2340C"/>
<path d="M91.428 40.2141L95.233 56.7971L92.791 61.8601L90.349 63.0061V42.2371L91.428 40.2141Z" fill="#E2340C"/>
<path d="M83.087 25.5021C83.087 25.5021 83.564 27.4891 81.1 28.7621C81.1 28.7621 80.225 27.697 79.668 27.132L83.087 25.5021Z" fill="white"/>
<path d="M83.723 18.7441C83.723 18.7441 83.219 18.2921 82.212 18.0541C81.751 17.9471 81.023 18.2541 80.297 18.1891L79.668 19.5391C79.668 19.5391 82.768 18.7441 83.723 18.7441Z" fill="white"/>
<path d="M85.551 15.0081L83.124 14.2131C83.124 14.2131 80.954 15.7631 79.668 17.3141L83.124 15.7091L84.597 16.1221L85.551 15.0081Z" fill="#77561D"/>
<path d="M83.723 18.744C82.047 17.786 79.948 18.441 79.668 19.539C79.231 19.065 80.94 16.319 83.723 18.744Z" fill="#77561D"/>
<path d="M80.435 18.821C80.435 19.113 80.718 19.35 81.066 19.35C81.415 19.35 81.696 19.113 81.696 18.821C81.696 18.529 81.415 18.292 81.066 18.292C80.718 18.292 80.435 18.529 80.435 18.821Z" fill="#3A3A3A"/>
<path d="M104.373 35.3061C102.548 33.6131 100.039 32.6211 97.127 35.3171L81.661 56.7971L70.786 39.4301L64.165 45.5371C64.165 45.5371 73.392 75.3241 81.695 72.5831C87.566 70.6451 112.633 42.9681 104.373 35.3061Z" fill="#3C3C99"/>
</svg>
